M48
;GenerationSoftware,Autodesk,EAGLE,8.7.1*%
;CreationDate,2021-04-04T20:08:02Z*%
FMAT,2
ICI,OFF
METRIC,TZ,000.000
T7C0.350
T6C0.500
T5C0.600
T4C0.800
T3C0.813
T2C1.000
T1C1.016
%
G90
M71
T1
X27940Y21590
X27940Y24130
X27940Y29210
X27940Y31750
X27940Y34290
X27940Y36830
X27940Y26670
T2
X7620Y78740
X7620Y76200
X7620Y73660
X7620Y71120
X7620Y68580
T3
X6350Y60960
X6350Y58420
X22860Y34290
X22860Y29210
X10160Y66040
X17780Y66040
X7620Y48260
X7620Y53340
X16510Y62230
X8890Y62230
X16510Y76200
X16510Y71120
T4
X56197Y39053
X56197Y35243
X17463Y39053
X17463Y35243
T5
X54610Y58420
X52070Y58420
X49530Y58420
X44450Y58420
X41910Y58420
X39370Y58420
X36830Y58420
X34290Y58420
X31750Y58420
X29210Y58420
X26670Y58420
X24130Y58420
X21590Y58420
X19050Y58420
X16510Y58420
X13970Y58420
X11430Y58420
X46990Y58420
X20460Y63458
X23000Y63462
X25540Y63467
X28080Y63471
X30620Y63476
X33160Y63480
X35700Y63484
X38240Y63489
X40780Y63493
X43320Y63498
X45860Y63502
X48400Y63507
X50940Y63511
X53480Y63516
X56020Y63520
X58560Y63524
X61100Y63529
X63640Y63533
X66180Y63538
X68720Y63542
X68694Y78782
X66154Y78778
X63614Y78773
X61074Y78769
X58534Y78764
X55994Y78760
X53454Y78756
X50914Y78751
X48374Y78747
X45834Y78742
X43294Y78738
X40754Y78733
X38214Y78729
X35674Y78724
X33134Y78720
X30594Y78716
X28054Y78711
X25514Y78707
X22974Y78702
X20434Y78698
X11430Y43180
X13970Y43180
X16510Y43180
X19050Y43180
X21590Y43180
X24130Y43180
X26670Y43180
X29210Y43180
X31750Y43180
X34290Y43180
X36830Y43180
X39370Y43180
X41910Y43180
X44450Y43180
X46990Y43180
X49530Y43180
X52070Y43180
X54610Y43180
X57150Y43180
X59690Y43180
X62230Y43180
X64770Y43180
X67310Y43180
X69850Y43180
X69850Y58420
X67310Y58420
X64770Y58420
X62230Y58420
X59690Y58420
X57150Y58420
T6
X53340Y81280
X66040Y81280
T7
X46514Y11906
X52546Y65881
X52546Y54927
X54769Y51752
X63659Y48419
X39529Y51911
X42069Y47149
X47307Y67310
X37465Y49530
X37465Y51117
X37465Y54769
X34195Y55023
X40799Y50165
X41275Y54292
X44767Y53022
X43656Y20003
X47149Y18415
X40164Y11430
X30480Y15557
X26829Y38418
X44450Y11112
X25400Y46831
X62389Y50165
X50959Y35084
X50959Y49689
X29845Y13335
X36195Y47625
X49212Y14605
X45561Y13970
X22860Y11906
X24606Y66675
X35624Y12192
X37465Y17145
X48736Y22701
X45402Y51752
X39211Y27940
X24765Y30385
X49054Y13335
X43021Y55721
X39211Y12541
M30