G04 EAGLE Gerber X2 export*
%TF.Part,Single*%
%TF.FileFunction,Legend,Top,1*%
%TF.FilePolarity,Positive*%
%TF.GenerationSoftware,Autodesk,EAGLE,8.7.1*%
%TF.CreationDate,2021-04-04T20:08:03Z*%
G75*
%MOMM*%
%FSLAX34Y34*%
%LPD*%
%AMOC8*
5,1,8,0,0,1.08239X$1,22.5*%
G01*
%ADD10C,0.101600*%
%ADD11C,0.050800*%
%ADD12C,0.127000*%
%ADD13C,0.203200*%
%ADD14C,0.609600*%
%ADD15C,0.076200*%
%ADD16C,0.152400*%
%ADD17C,0.254000*%
%ADD18C,0.304800*%
%ADD19R,0.381000X0.508000*%


D10*
X37592Y438658D02*
X25908Y438658D01*
X32399Y442553D01*
X25908Y446447D01*
X37592Y446447D01*
X34346Y451880D02*
X29154Y451880D01*
X29041Y451882D01*
X28928Y451888D01*
X28815Y451898D01*
X28702Y451912D01*
X28590Y451929D01*
X28479Y451951D01*
X28369Y451976D01*
X28259Y452006D01*
X28151Y452039D01*
X28044Y452076D01*
X27938Y452116D01*
X27834Y452161D01*
X27731Y452209D01*
X27630Y452260D01*
X27531Y452315D01*
X27434Y452373D01*
X27339Y452435D01*
X27246Y452500D01*
X27156Y452568D01*
X27068Y452639D01*
X26982Y452714D01*
X26899Y452791D01*
X26819Y452871D01*
X26742Y452954D01*
X26667Y453040D01*
X26596Y453128D01*
X26528Y453218D01*
X26463Y453311D01*
X26401Y453406D01*
X26343Y453503D01*
X26288Y453602D01*
X26237Y453703D01*
X26189Y453806D01*
X26144Y453910D01*
X26104Y454016D01*
X26067Y454123D01*
X26034Y454231D01*
X26004Y454341D01*
X25979Y454451D01*
X25957Y454562D01*
X25940Y454674D01*
X25926Y454787D01*
X25916Y454900D01*
X25910Y455013D01*
X25908Y455126D01*
X25910Y455239D01*
X25916Y455352D01*
X25926Y455465D01*
X25940Y455578D01*
X25957Y455690D01*
X25979Y455801D01*
X26004Y455911D01*
X26034Y456021D01*
X26067Y456129D01*
X26104Y456236D01*
X26144Y456342D01*
X26189Y456446D01*
X26237Y456549D01*
X26288Y456650D01*
X26343Y456749D01*
X26401Y456846D01*
X26463Y456941D01*
X26528Y457034D01*
X26596Y457124D01*
X26667Y457212D01*
X26742Y457298D01*
X26819Y457381D01*
X26899Y457461D01*
X26982Y457538D01*
X27068Y457613D01*
X27156Y457684D01*
X27246Y457752D01*
X27339Y457817D01*
X27434Y457879D01*
X27531Y457937D01*
X27630Y457992D01*
X27731Y458043D01*
X27834Y458091D01*
X27938Y458136D01*
X28044Y458176D01*
X28151Y458213D01*
X28259Y458246D01*
X28369Y458276D01*
X28479Y458301D01*
X28590Y458323D01*
X28702Y458340D01*
X28815Y458354D01*
X28928Y458364D01*
X29041Y458370D01*
X29154Y458372D01*
X29154Y458371D02*
X34346Y458371D01*
X34346Y458372D02*
X34459Y458370D01*
X34572Y458364D01*
X34685Y458354D01*
X34798Y458340D01*
X34910Y458323D01*
X35021Y458301D01*
X35131Y458276D01*
X35241Y458246D01*
X35349Y458213D01*
X35456Y458176D01*
X35562Y458136D01*
X35666Y458091D01*
X35769Y458043D01*
X35870Y457992D01*
X35969Y457937D01*
X36066Y457879D01*
X36161Y457817D01*
X36254Y457752D01*
X36344Y457684D01*
X36432Y457613D01*
X36518Y457538D01*
X36601Y457461D01*
X36681Y457381D01*
X36758Y457298D01*
X36833Y457212D01*
X36904Y457124D01*
X36972Y457034D01*
X37037Y456941D01*
X37099Y456846D01*
X37157Y456749D01*
X37212Y456650D01*
X37263Y456549D01*
X37311Y456446D01*
X37356Y456342D01*
X37396Y456236D01*
X37433Y456129D01*
X37466Y456021D01*
X37496Y455911D01*
X37521Y455801D01*
X37543Y455690D01*
X37560Y455578D01*
X37574Y455465D01*
X37584Y455352D01*
X37590Y455239D01*
X37592Y455126D01*
X37590Y455013D01*
X37584Y454900D01*
X37574Y454787D01*
X37560Y454674D01*
X37543Y454562D01*
X37521Y454451D01*
X37496Y454341D01*
X37466Y454231D01*
X37433Y454123D01*
X37396Y454016D01*
X37356Y453910D01*
X37311Y453806D01*
X37263Y453703D01*
X37212Y453602D01*
X37157Y453503D01*
X37099Y453406D01*
X37037Y453311D01*
X36972Y453218D01*
X36904Y453128D01*
X36833Y453040D01*
X36758Y452954D01*
X36681Y452871D01*
X36601Y452791D01*
X36518Y452714D01*
X36432Y452639D01*
X36344Y452568D01*
X36254Y452500D01*
X36161Y452435D01*
X36066Y452373D01*
X35969Y452315D01*
X35870Y452260D01*
X35769Y452209D01*
X35666Y452161D01*
X35562Y452116D01*
X35456Y452076D01*
X35349Y452039D01*
X35241Y452006D01*
X35131Y451976D01*
X35021Y451951D01*
X34910Y451929D01*
X34798Y451912D01*
X34685Y451898D01*
X34572Y451888D01*
X34459Y451882D01*
X34346Y451880D01*
X25908Y462661D02*
X37592Y466556D01*
X25908Y470450D01*
X25908Y475700D02*
X37592Y475700D01*
X37592Y476998D02*
X37592Y474401D01*
X25908Y474401D02*
X25908Y476998D01*
X37592Y482002D02*
X37592Y487195D01*
X37592Y482002D02*
X25908Y482002D01*
X25908Y487195D01*
X31101Y485896D02*
X31101Y482002D01*
X37592Y494067D02*
X37592Y496664D01*
X37592Y494067D02*
X37590Y493968D01*
X37584Y493868D01*
X37575Y493769D01*
X37562Y493671D01*
X37545Y493573D01*
X37524Y493475D01*
X37499Y493379D01*
X37471Y493284D01*
X37439Y493190D01*
X37404Y493097D01*
X37365Y493005D01*
X37322Y492915D01*
X37277Y492827D01*
X37227Y492740D01*
X37175Y492656D01*
X37119Y492573D01*
X37061Y492493D01*
X36999Y492415D01*
X36934Y492340D01*
X36866Y492267D01*
X36796Y492197D01*
X36723Y492129D01*
X36648Y492064D01*
X36570Y492002D01*
X36490Y491944D01*
X36407Y491888D01*
X36323Y491836D01*
X36236Y491786D01*
X36148Y491741D01*
X36058Y491698D01*
X35966Y491659D01*
X35873Y491624D01*
X35779Y491592D01*
X35684Y491564D01*
X35588Y491539D01*
X35490Y491518D01*
X35392Y491501D01*
X35294Y491488D01*
X35195Y491479D01*
X35095Y491473D01*
X34996Y491471D01*
X28504Y491471D01*
X28504Y491470D02*
X28405Y491472D01*
X28305Y491478D01*
X28206Y491487D01*
X28108Y491500D01*
X28010Y491518D01*
X27912Y491538D01*
X27816Y491563D01*
X27720Y491591D01*
X27626Y491623D01*
X27533Y491658D01*
X27442Y491697D01*
X27352Y491740D01*
X27263Y491785D01*
X27177Y491835D01*
X27092Y491887D01*
X27010Y491943D01*
X26930Y492002D01*
X26852Y492063D01*
X26776Y492128D01*
X26703Y492196D01*
X26633Y492266D01*
X26565Y492339D01*
X26500Y492415D01*
X26439Y492493D01*
X26380Y492573D01*
X26324Y492655D01*
X26272Y492740D01*
X26223Y492826D01*
X26177Y492915D01*
X26134Y493005D01*
X26095Y493096D01*
X26060Y493189D01*
X26028Y493283D01*
X26000Y493379D01*
X25975Y493475D01*
X25955Y493573D01*
X25937Y493671D01*
X25924Y493769D01*
X25915Y493868D01*
X25909Y493967D01*
X25907Y494067D01*
X25908Y494067D02*
X25908Y496664D01*
X25908Y504275D02*
X37592Y500380D01*
X37592Y508169D02*
X25908Y504275D01*
X34671Y507196D02*
X34671Y501354D01*
X37592Y512914D02*
X25908Y512914D01*
X25908Y516159D01*
X25910Y516272D01*
X25916Y516385D01*
X25926Y516498D01*
X25940Y516611D01*
X25957Y516723D01*
X25979Y516834D01*
X26004Y516944D01*
X26034Y517054D01*
X26067Y517162D01*
X26104Y517269D01*
X26144Y517375D01*
X26189Y517479D01*
X26237Y517582D01*
X26288Y517683D01*
X26343Y517782D01*
X26401Y517879D01*
X26463Y517974D01*
X26528Y518067D01*
X26596Y518157D01*
X26667Y518245D01*
X26742Y518331D01*
X26819Y518414D01*
X26899Y518494D01*
X26982Y518571D01*
X27068Y518646D01*
X27156Y518717D01*
X27246Y518785D01*
X27339Y518850D01*
X27434Y518912D01*
X27531Y518970D01*
X27630Y519025D01*
X27731Y519076D01*
X27834Y519124D01*
X27938Y519169D01*
X28044Y519209D01*
X28151Y519246D01*
X28259Y519279D01*
X28369Y519309D01*
X28479Y519334D01*
X28590Y519356D01*
X28702Y519373D01*
X28815Y519387D01*
X28928Y519397D01*
X29041Y519403D01*
X29154Y519405D01*
X29267Y519403D01*
X29380Y519397D01*
X29493Y519387D01*
X29606Y519373D01*
X29718Y519356D01*
X29829Y519334D01*
X29939Y519309D01*
X30049Y519279D01*
X30157Y519246D01*
X30264Y519209D01*
X30370Y519169D01*
X30474Y519124D01*
X30577Y519076D01*
X30678Y519025D01*
X30777Y518970D01*
X30874Y518912D01*
X30969Y518850D01*
X31062Y518785D01*
X31152Y518717D01*
X31240Y518646D01*
X31326Y518571D01*
X31409Y518494D01*
X31489Y518414D01*
X31566Y518331D01*
X31641Y518245D01*
X31712Y518157D01*
X31780Y518067D01*
X31845Y517974D01*
X31907Y517879D01*
X31965Y517782D01*
X32020Y517683D01*
X32071Y517582D01*
X32119Y517479D01*
X32164Y517375D01*
X32204Y517269D01*
X32241Y517162D01*
X32274Y517054D01*
X32304Y516944D01*
X32329Y516834D01*
X32351Y516723D01*
X32368Y516611D01*
X32382Y516498D01*
X32392Y516385D01*
X32398Y516272D01*
X32400Y516159D01*
X32399Y516159D02*
X32399Y512914D01*
X32399Y516808D02*
X37592Y519405D01*
X37592Y526754D02*
X25908Y526754D01*
X25908Y529999D02*
X25908Y523508D01*
X28504Y540272D02*
X25908Y543518D01*
X37592Y543518D01*
X37592Y546763D02*
X37592Y540272D01*
X37592Y551194D02*
X36943Y551194D01*
X36943Y551843D01*
X37592Y551843D01*
X37592Y551194D01*
X28504Y556274D02*
X25908Y559519D01*
X37592Y559519D01*
X37592Y556274D02*
X37592Y562765D01*
D11*
X112804Y785114D02*
X112804Y792226D01*
X112014Y785114D02*
X113594Y785114D01*
X113594Y792226D02*
X112014Y792226D01*
X117877Y785114D02*
X119458Y785114D01*
X117877Y785114D02*
X117799Y785116D01*
X117722Y785122D01*
X117645Y785131D01*
X117569Y785144D01*
X117493Y785161D01*
X117418Y785182D01*
X117345Y785206D01*
X117272Y785234D01*
X117201Y785266D01*
X117132Y785301D01*
X117065Y785339D01*
X116999Y785380D01*
X116936Y785425D01*
X116875Y785473D01*
X116816Y785523D01*
X116760Y785577D01*
X116706Y785633D01*
X116656Y785692D01*
X116608Y785753D01*
X116563Y785816D01*
X116522Y785882D01*
X116484Y785949D01*
X116449Y786018D01*
X116417Y786089D01*
X116389Y786162D01*
X116365Y786235D01*
X116344Y786310D01*
X116327Y786386D01*
X116314Y786462D01*
X116305Y786539D01*
X116299Y786616D01*
X116297Y786694D01*
X116297Y790646D01*
X116299Y790724D01*
X116305Y790801D01*
X116314Y790878D01*
X116327Y790954D01*
X116344Y791030D01*
X116365Y791105D01*
X116389Y791178D01*
X116417Y791251D01*
X116449Y791322D01*
X116484Y791391D01*
X116522Y791458D01*
X116563Y791524D01*
X116608Y791587D01*
X116656Y791648D01*
X116706Y791707D01*
X116760Y791763D01*
X116816Y791817D01*
X116875Y791867D01*
X116936Y791915D01*
X116999Y791960D01*
X117065Y792001D01*
X117132Y792039D01*
X117201Y792074D01*
X117272Y792106D01*
X117345Y792134D01*
X117418Y792158D01*
X117493Y792179D01*
X117569Y792196D01*
X117645Y792209D01*
X117722Y792218D01*
X117799Y792224D01*
X117877Y792226D01*
X119458Y792226D01*
X125752Y786694D02*
X125750Y786616D01*
X125744Y786539D01*
X125735Y786462D01*
X125722Y786386D01*
X125705Y786310D01*
X125684Y786235D01*
X125660Y786162D01*
X125632Y786089D01*
X125600Y786018D01*
X125565Y785949D01*
X125527Y785882D01*
X125486Y785816D01*
X125441Y785753D01*
X125393Y785692D01*
X125343Y785633D01*
X125289Y785577D01*
X125233Y785523D01*
X125174Y785473D01*
X125113Y785425D01*
X125050Y785380D01*
X124984Y785339D01*
X124917Y785301D01*
X124848Y785266D01*
X124777Y785234D01*
X124704Y785206D01*
X124631Y785182D01*
X124556Y785161D01*
X124480Y785144D01*
X124404Y785131D01*
X124327Y785122D01*
X124250Y785116D01*
X124172Y785114D01*
X124057Y785116D01*
X123943Y785122D01*
X123829Y785132D01*
X123715Y785145D01*
X123602Y785163D01*
X123489Y785185D01*
X123377Y785210D01*
X123267Y785239D01*
X123157Y785272D01*
X123048Y785309D01*
X122941Y785349D01*
X122835Y785393D01*
X122731Y785441D01*
X122628Y785492D01*
X122528Y785547D01*
X122429Y785605D01*
X122332Y785667D01*
X122238Y785731D01*
X122145Y785799D01*
X122055Y785871D01*
X121968Y785945D01*
X121883Y786022D01*
X121801Y786102D01*
X121999Y790646D02*
X122001Y790724D01*
X122007Y790801D01*
X122016Y790878D01*
X122029Y790954D01*
X122046Y791030D01*
X122067Y791105D01*
X122091Y791178D01*
X122119Y791251D01*
X122151Y791322D01*
X122186Y791391D01*
X122224Y791458D01*
X122265Y791524D01*
X122310Y791587D01*
X122358Y791648D01*
X122408Y791707D01*
X122462Y791763D01*
X122518Y791817D01*
X122577Y791867D01*
X122638Y791915D01*
X122701Y791960D01*
X122767Y792001D01*
X122834Y792039D01*
X122903Y792074D01*
X122974Y792106D01*
X123047Y792134D01*
X123120Y792158D01*
X123195Y792179D01*
X123271Y792196D01*
X123347Y792209D01*
X123424Y792218D01*
X123502Y792224D01*
X123579Y792226D01*
X123685Y792224D01*
X123791Y792218D01*
X123896Y792209D01*
X124001Y792196D01*
X124106Y792179D01*
X124210Y792158D01*
X124313Y792134D01*
X124415Y792106D01*
X124516Y792074D01*
X124616Y792039D01*
X124714Y792000D01*
X124812Y791957D01*
X124907Y791912D01*
X125001Y791863D01*
X125093Y791810D01*
X125183Y791754D01*
X125271Y791695D01*
X125357Y791633D01*
X122789Y789263D02*
X122722Y789305D01*
X122657Y789350D01*
X122594Y789399D01*
X122533Y789450D01*
X122476Y789505D01*
X122421Y789562D01*
X122368Y789622D01*
X122319Y789684D01*
X122273Y789749D01*
X122231Y789815D01*
X122191Y789884D01*
X122155Y789955D01*
X122123Y790028D01*
X122094Y790102D01*
X122069Y790177D01*
X122048Y790253D01*
X122030Y790331D01*
X122017Y790409D01*
X122007Y790488D01*
X122001Y790567D01*
X121999Y790646D01*
X124962Y788077D02*
X125029Y788035D01*
X125094Y787990D01*
X125157Y787941D01*
X125218Y787890D01*
X125275Y787835D01*
X125330Y787778D01*
X125383Y787718D01*
X125432Y787656D01*
X125478Y787591D01*
X125520Y787525D01*
X125560Y787456D01*
X125596Y787385D01*
X125628Y787312D01*
X125657Y787238D01*
X125682Y787163D01*
X125703Y787087D01*
X125721Y787009D01*
X125734Y786931D01*
X125744Y786852D01*
X125750Y786773D01*
X125752Y786694D01*
X124962Y788077D02*
X122789Y789263D01*
X128753Y792226D02*
X128753Y785114D01*
X128753Y792226D02*
X130728Y792226D01*
X130815Y792224D01*
X130903Y792218D01*
X130990Y792209D01*
X131076Y792195D01*
X131162Y792178D01*
X131246Y792157D01*
X131330Y792132D01*
X131413Y792103D01*
X131494Y792071D01*
X131574Y792036D01*
X131652Y791997D01*
X131729Y791954D01*
X131803Y791908D01*
X131875Y791859D01*
X131945Y791807D01*
X132013Y791751D01*
X132078Y791693D01*
X132141Y791632D01*
X132200Y791568D01*
X132257Y791501D01*
X132311Y791433D01*
X132362Y791361D01*
X132409Y791288D01*
X132454Y791213D01*
X132495Y791135D01*
X132532Y791056D01*
X132566Y790976D01*
X132596Y790894D01*
X132623Y790811D01*
X132646Y790726D01*
X132665Y790641D01*
X132680Y790555D01*
X132692Y790468D01*
X132700Y790381D01*
X132704Y790294D01*
X132704Y790206D01*
X132700Y790119D01*
X132692Y790032D01*
X132680Y789945D01*
X132665Y789859D01*
X132646Y789774D01*
X132623Y789689D01*
X132596Y789606D01*
X132566Y789524D01*
X132532Y789444D01*
X132495Y789365D01*
X132454Y789287D01*
X132409Y789212D01*
X132362Y789139D01*
X132311Y789067D01*
X132257Y788999D01*
X132200Y788932D01*
X132141Y788868D01*
X132078Y788807D01*
X132013Y788749D01*
X131945Y788693D01*
X131875Y788641D01*
X131803Y788592D01*
X131729Y788546D01*
X131652Y788503D01*
X131574Y788464D01*
X131494Y788429D01*
X131413Y788397D01*
X131330Y788368D01*
X131246Y788343D01*
X131162Y788322D01*
X131076Y788305D01*
X130990Y788291D01*
X130903Y788282D01*
X130815Y788276D01*
X130728Y788274D01*
X130728Y788275D02*
X128753Y788275D01*
X136851Y785114D02*
X138431Y785114D01*
X136851Y785114D02*
X136773Y785116D01*
X136696Y785122D01*
X136619Y785131D01*
X136543Y785144D01*
X136467Y785161D01*
X136392Y785182D01*
X136319Y785206D01*
X136246Y785234D01*
X136175Y785266D01*
X136106Y785301D01*
X136039Y785339D01*
X135973Y785380D01*
X135910Y785425D01*
X135849Y785473D01*
X135790Y785523D01*
X135734Y785577D01*
X135680Y785633D01*
X135630Y785692D01*
X135582Y785753D01*
X135537Y785816D01*
X135496Y785882D01*
X135458Y785949D01*
X135423Y786018D01*
X135391Y786089D01*
X135363Y786162D01*
X135339Y786235D01*
X135318Y786310D01*
X135301Y786386D01*
X135288Y786462D01*
X135279Y786539D01*
X135273Y786616D01*
X135271Y786694D01*
X135271Y790646D01*
X135273Y790724D01*
X135279Y790801D01*
X135288Y790878D01*
X135301Y790954D01*
X135318Y791030D01*
X135339Y791105D01*
X135363Y791178D01*
X135391Y791251D01*
X135423Y791322D01*
X135458Y791391D01*
X135496Y791458D01*
X135537Y791524D01*
X135582Y791587D01*
X135630Y791648D01*
X135680Y791707D01*
X135734Y791763D01*
X135790Y791817D01*
X135849Y791867D01*
X135910Y791915D01*
X135973Y791960D01*
X136039Y792001D01*
X136106Y792039D01*
X136175Y792074D01*
X136246Y792106D01*
X136319Y792134D01*
X136392Y792158D01*
X136467Y792179D01*
X136543Y792196D01*
X136619Y792209D01*
X136696Y792218D01*
X136773Y792224D01*
X136851Y792226D01*
X138431Y792226D01*
X141245Y792226D02*
X141245Y785114D01*
X144406Y785114D01*
X147269Y785114D02*
X147269Y792226D01*
X151220Y792226D02*
X147269Y787880D01*
X148849Y789460D02*
X151220Y785114D01*
X111534Y764286D02*
X111534Y757174D01*
X110744Y757174D02*
X112324Y757174D01*
X112324Y764286D02*
X110744Y764286D01*
X116607Y757174D02*
X118188Y757174D01*
X116607Y757174D02*
X116529Y757176D01*
X116452Y757182D01*
X116375Y757191D01*
X116299Y757204D01*
X116223Y757221D01*
X116148Y757242D01*
X116075Y757266D01*
X116002Y757294D01*
X115931Y757326D01*
X115862Y757361D01*
X115795Y757399D01*
X115729Y757440D01*
X115666Y757485D01*
X115605Y757533D01*
X115546Y757583D01*
X115490Y757637D01*
X115436Y757693D01*
X115386Y757752D01*
X115338Y757813D01*
X115293Y757876D01*
X115252Y757942D01*
X115214Y758009D01*
X115179Y758078D01*
X115147Y758149D01*
X115119Y758222D01*
X115095Y758295D01*
X115074Y758370D01*
X115057Y758446D01*
X115044Y758522D01*
X115035Y758599D01*
X115029Y758676D01*
X115027Y758754D01*
X115027Y762706D01*
X115029Y762784D01*
X115035Y762861D01*
X115044Y762938D01*
X115057Y763014D01*
X115074Y763090D01*
X115095Y763165D01*
X115119Y763238D01*
X115147Y763311D01*
X115179Y763382D01*
X115214Y763451D01*
X115252Y763518D01*
X115293Y763584D01*
X115338Y763647D01*
X115386Y763708D01*
X115436Y763767D01*
X115490Y763823D01*
X115546Y763877D01*
X115605Y763927D01*
X115666Y763975D01*
X115729Y764020D01*
X115795Y764061D01*
X115862Y764099D01*
X115931Y764134D01*
X116002Y764166D01*
X116075Y764194D01*
X116148Y764218D01*
X116223Y764239D01*
X116299Y764256D01*
X116375Y764269D01*
X116452Y764278D01*
X116529Y764284D01*
X116607Y764286D01*
X118188Y764286D01*
X124482Y758754D02*
X124480Y758676D01*
X124474Y758599D01*
X124465Y758522D01*
X124452Y758446D01*
X124435Y758370D01*
X124414Y758295D01*
X124390Y758222D01*
X124362Y758149D01*
X124330Y758078D01*
X124295Y758009D01*
X124257Y757942D01*
X124216Y757876D01*
X124171Y757813D01*
X124123Y757752D01*
X124073Y757693D01*
X124019Y757637D01*
X123963Y757583D01*
X123904Y757533D01*
X123843Y757485D01*
X123780Y757440D01*
X123714Y757399D01*
X123647Y757361D01*
X123578Y757326D01*
X123507Y757294D01*
X123434Y757266D01*
X123361Y757242D01*
X123286Y757221D01*
X123210Y757204D01*
X123134Y757191D01*
X123057Y757182D01*
X122980Y757176D01*
X122902Y757174D01*
X122787Y757176D01*
X122673Y757182D01*
X122559Y757192D01*
X122445Y757205D01*
X122332Y757223D01*
X122219Y757245D01*
X122107Y757270D01*
X121997Y757299D01*
X121887Y757332D01*
X121778Y757369D01*
X121671Y757409D01*
X121565Y757453D01*
X121461Y757501D01*
X121358Y757552D01*
X121258Y757607D01*
X121159Y757665D01*
X121062Y757727D01*
X120968Y757791D01*
X120875Y757859D01*
X120785Y757931D01*
X120698Y758005D01*
X120613Y758082D01*
X120531Y758162D01*
X120729Y762706D02*
X120731Y762784D01*
X120737Y762861D01*
X120746Y762938D01*
X120759Y763014D01*
X120776Y763090D01*
X120797Y763165D01*
X120821Y763238D01*
X120849Y763311D01*
X120881Y763382D01*
X120916Y763451D01*
X120954Y763518D01*
X120995Y763584D01*
X121040Y763647D01*
X121088Y763708D01*
X121138Y763767D01*
X121192Y763823D01*
X121248Y763877D01*
X121307Y763927D01*
X121368Y763975D01*
X121431Y764020D01*
X121497Y764061D01*
X121564Y764099D01*
X121633Y764134D01*
X121704Y764166D01*
X121777Y764194D01*
X121850Y764218D01*
X121925Y764239D01*
X122001Y764256D01*
X122077Y764269D01*
X122154Y764278D01*
X122232Y764284D01*
X122309Y764286D01*
X122415Y764284D01*
X122521Y764278D01*
X122626Y764269D01*
X122731Y764256D01*
X122836Y764239D01*
X122940Y764218D01*
X123043Y764194D01*
X123145Y764166D01*
X123246Y764134D01*
X123346Y764099D01*
X123444Y764060D01*
X123542Y764017D01*
X123637Y763972D01*
X123731Y763923D01*
X123823Y763870D01*
X123913Y763814D01*
X124001Y763755D01*
X124087Y763693D01*
X121519Y761323D02*
X121452Y761365D01*
X121387Y761410D01*
X121324Y761459D01*
X121263Y761510D01*
X121206Y761565D01*
X121151Y761622D01*
X121098Y761682D01*
X121049Y761744D01*
X121003Y761809D01*
X120961Y761875D01*
X120921Y761944D01*
X120885Y762015D01*
X120853Y762088D01*
X120824Y762162D01*
X120799Y762237D01*
X120778Y762313D01*
X120760Y762391D01*
X120747Y762469D01*
X120737Y762548D01*
X120731Y762627D01*
X120729Y762706D01*
X123692Y760137D02*
X123759Y760095D01*
X123824Y760050D01*
X123887Y760001D01*
X123948Y759950D01*
X124005Y759895D01*
X124060Y759838D01*
X124113Y759778D01*
X124162Y759716D01*
X124208Y759651D01*
X124250Y759585D01*
X124290Y759516D01*
X124326Y759445D01*
X124358Y759372D01*
X124387Y759298D01*
X124412Y759223D01*
X124433Y759147D01*
X124451Y759069D01*
X124464Y758991D01*
X124474Y758912D01*
X124480Y758833D01*
X124482Y758754D01*
X123692Y760137D02*
X121519Y761323D01*
X127483Y764286D02*
X127483Y757174D01*
X127483Y764286D02*
X129458Y764286D01*
X129545Y764284D01*
X129633Y764278D01*
X129720Y764269D01*
X129806Y764255D01*
X129892Y764238D01*
X129976Y764217D01*
X130060Y764192D01*
X130143Y764163D01*
X130224Y764131D01*
X130304Y764096D01*
X130382Y764057D01*
X130459Y764014D01*
X130533Y763968D01*
X130605Y763919D01*
X130675Y763867D01*
X130743Y763811D01*
X130808Y763753D01*
X130871Y763692D01*
X130930Y763628D01*
X130987Y763561D01*
X131041Y763493D01*
X131092Y763421D01*
X131139Y763348D01*
X131184Y763273D01*
X131225Y763195D01*
X131262Y763116D01*
X131296Y763036D01*
X131326Y762954D01*
X131353Y762871D01*
X131376Y762786D01*
X131395Y762701D01*
X131410Y762615D01*
X131422Y762528D01*
X131430Y762441D01*
X131434Y762354D01*
X131434Y762266D01*
X131430Y762179D01*
X131422Y762092D01*
X131410Y762005D01*
X131395Y761919D01*
X131376Y761834D01*
X131353Y761749D01*
X131326Y761666D01*
X131296Y761584D01*
X131262Y761504D01*
X131225Y761425D01*
X131184Y761347D01*
X131139Y761272D01*
X131092Y761199D01*
X131041Y761127D01*
X130987Y761059D01*
X130930Y760992D01*
X130871Y760928D01*
X130808Y760867D01*
X130743Y760809D01*
X130675Y760753D01*
X130605Y760701D01*
X130533Y760652D01*
X130459Y760606D01*
X130382Y760563D01*
X130304Y760524D01*
X130224Y760489D01*
X130143Y760457D01*
X130060Y760428D01*
X129976Y760403D01*
X129892Y760382D01*
X129806Y760365D01*
X129720Y760351D01*
X129633Y760342D01*
X129545Y760336D01*
X129458Y760334D01*
X129458Y760335D02*
X127483Y760335D01*
X134247Y757174D02*
X134247Y764286D01*
X136223Y764286D01*
X136309Y764284D01*
X136395Y764278D01*
X136481Y764269D01*
X136566Y764256D01*
X136651Y764239D01*
X136734Y764219D01*
X136817Y764195D01*
X136899Y764167D01*
X136979Y764136D01*
X137058Y764101D01*
X137135Y764063D01*
X137211Y764021D01*
X137285Y763977D01*
X137356Y763929D01*
X137426Y763878D01*
X137493Y763824D01*
X137558Y763767D01*
X137620Y763707D01*
X137680Y763645D01*
X137737Y763580D01*
X137791Y763513D01*
X137842Y763443D01*
X137890Y763372D01*
X137934Y763298D01*
X137976Y763222D01*
X138014Y763145D01*
X138049Y763066D01*
X138080Y762986D01*
X138108Y762904D01*
X138132Y762821D01*
X138152Y762738D01*
X138169Y762653D01*
X138182Y762568D01*
X138191Y762482D01*
X138197Y762396D01*
X138199Y762310D01*
X138198Y762310D02*
X138198Y759150D01*
X138199Y759150D02*
X138197Y759064D01*
X138191Y758978D01*
X138182Y758892D01*
X138169Y758807D01*
X138152Y758722D01*
X138132Y758639D01*
X138108Y758556D01*
X138080Y758474D01*
X138049Y758394D01*
X138014Y758315D01*
X137976Y758238D01*
X137934Y758162D01*
X137890Y758088D01*
X137842Y758017D01*
X137791Y757947D01*
X137737Y757880D01*
X137680Y757815D01*
X137620Y757753D01*
X137558Y757693D01*
X137493Y757636D01*
X137426Y757582D01*
X137356Y757531D01*
X137285Y757483D01*
X137211Y757439D01*
X137135Y757397D01*
X137058Y757359D01*
X136979Y757324D01*
X136899Y757293D01*
X136817Y757265D01*
X136734Y757241D01*
X136651Y757221D01*
X136566Y757204D01*
X136481Y757191D01*
X136395Y757182D01*
X136309Y757176D01*
X136223Y757174D01*
X134247Y757174D01*
X140939Y757174D02*
X143309Y764286D01*
X145680Y757174D01*
X145087Y758952D02*
X141531Y758952D01*
X149710Y757174D02*
X149710Y764286D01*
X147735Y764286D02*
X151686Y764286D01*
X115965Y735725D02*
X114780Y735725D01*
X115965Y735725D02*
X115965Y731774D01*
X113594Y731774D01*
X113516Y731776D01*
X113439Y731782D01*
X113362Y731791D01*
X113286Y731804D01*
X113210Y731821D01*
X113135Y731842D01*
X113062Y731866D01*
X112989Y731894D01*
X112918Y731926D01*
X112849Y731961D01*
X112782Y731999D01*
X112716Y732040D01*
X112653Y732085D01*
X112592Y732133D01*
X112533Y732183D01*
X112477Y732237D01*
X112423Y732293D01*
X112373Y732352D01*
X112325Y732413D01*
X112280Y732476D01*
X112239Y732542D01*
X112201Y732609D01*
X112166Y732678D01*
X112134Y732749D01*
X112106Y732822D01*
X112082Y732895D01*
X112061Y732970D01*
X112044Y733046D01*
X112031Y733122D01*
X112022Y733199D01*
X112016Y733276D01*
X112014Y733354D01*
X112014Y737306D01*
X112016Y737384D01*
X112022Y737461D01*
X112031Y737538D01*
X112044Y737614D01*
X112061Y737690D01*
X112082Y737765D01*
X112106Y737838D01*
X112134Y737911D01*
X112166Y737982D01*
X112201Y738051D01*
X112239Y738118D01*
X112280Y738184D01*
X112325Y738247D01*
X112373Y738308D01*
X112423Y738367D01*
X112477Y738423D01*
X112533Y738477D01*
X112592Y738527D01*
X112653Y738575D01*
X112716Y738620D01*
X112782Y738661D01*
X112849Y738699D01*
X112918Y738734D01*
X112989Y738766D01*
X113062Y738794D01*
X113135Y738818D01*
X113210Y738839D01*
X113286Y738856D01*
X113362Y738869D01*
X113439Y738878D01*
X113516Y738884D01*
X113594Y738886D01*
X115965Y738886D01*
X119329Y738886D02*
X119329Y731774D01*
X123280Y731774D02*
X119329Y738886D01*
X123280Y738886D02*
X123280Y731774D01*
X126644Y731774D02*
X126644Y738886D01*
X128620Y738886D01*
X128706Y738884D01*
X128792Y738878D01*
X128878Y738869D01*
X128963Y738856D01*
X129048Y738839D01*
X129131Y738819D01*
X129214Y738795D01*
X129296Y738767D01*
X129376Y738736D01*
X129455Y738701D01*
X129532Y738663D01*
X129608Y738621D01*
X129682Y738577D01*
X129753Y738529D01*
X129823Y738478D01*
X129890Y738424D01*
X129955Y738367D01*
X130017Y738307D01*
X130077Y738245D01*
X130134Y738180D01*
X130188Y738113D01*
X130239Y738043D01*
X130287Y737972D01*
X130331Y737898D01*
X130373Y737822D01*
X130411Y737745D01*
X130446Y737666D01*
X130477Y737586D01*
X130505Y737504D01*
X130529Y737421D01*
X130549Y737338D01*
X130566Y737253D01*
X130579Y737168D01*
X130588Y737082D01*
X130594Y736996D01*
X130596Y736910D01*
X130595Y736910D02*
X130595Y733750D01*
X130596Y733750D02*
X130594Y733664D01*
X130588Y733578D01*
X130579Y733492D01*
X130566Y733407D01*
X130549Y733322D01*
X130529Y733239D01*
X130505Y733156D01*
X130477Y733074D01*
X130446Y732994D01*
X130411Y732915D01*
X130373Y732838D01*
X130331Y732762D01*
X130287Y732688D01*
X130239Y732617D01*
X130188Y732547D01*
X130134Y732480D01*
X130077Y732415D01*
X130017Y732353D01*
X129955Y732293D01*
X129890Y732236D01*
X129823Y732182D01*
X129753Y732131D01*
X129682Y732083D01*
X129608Y732039D01*
X129532Y731997D01*
X129455Y731959D01*
X129376Y731924D01*
X129296Y731893D01*
X129214Y731865D01*
X129131Y731841D01*
X129048Y731821D01*
X128963Y731804D01*
X128878Y731791D01*
X128792Y731782D01*
X128706Y731776D01*
X128620Y731774D01*
X126644Y731774D01*
X113284Y713486D02*
X115655Y706374D01*
X118025Y713486D01*
X120766Y713486D02*
X120766Y706374D01*
X120766Y713486D02*
X122741Y713486D01*
X122827Y713484D01*
X122913Y713478D01*
X122999Y713469D01*
X123084Y713456D01*
X123169Y713439D01*
X123252Y713419D01*
X123335Y713395D01*
X123417Y713367D01*
X123497Y713336D01*
X123576Y713301D01*
X123653Y713263D01*
X123729Y713221D01*
X123803Y713177D01*
X123874Y713129D01*
X123944Y713078D01*
X124011Y713024D01*
X124076Y712967D01*
X124138Y712907D01*
X124198Y712845D01*
X124255Y712780D01*
X124309Y712713D01*
X124360Y712643D01*
X124408Y712572D01*
X124452Y712498D01*
X124494Y712422D01*
X124532Y712345D01*
X124567Y712266D01*
X124598Y712186D01*
X124626Y712104D01*
X124650Y712021D01*
X124670Y711938D01*
X124687Y711853D01*
X124700Y711768D01*
X124709Y711682D01*
X124715Y711596D01*
X124717Y711510D01*
X124717Y708350D01*
X124715Y708264D01*
X124709Y708178D01*
X124700Y708092D01*
X124687Y708007D01*
X124670Y707922D01*
X124650Y707839D01*
X124626Y707756D01*
X124598Y707674D01*
X124567Y707594D01*
X124532Y707515D01*
X124494Y707438D01*
X124452Y707362D01*
X124408Y707288D01*
X124360Y707217D01*
X124309Y707147D01*
X124255Y707080D01*
X124198Y707015D01*
X124138Y706953D01*
X124076Y706893D01*
X124011Y706836D01*
X123944Y706782D01*
X123874Y706731D01*
X123803Y706683D01*
X123729Y706639D01*
X123653Y706597D01*
X123576Y706559D01*
X123497Y706524D01*
X123417Y706493D01*
X123335Y706465D01*
X123252Y706441D01*
X123169Y706421D01*
X123084Y706404D01*
X122999Y706391D01*
X122913Y706382D01*
X122827Y706376D01*
X122741Y706374D01*
X120766Y706374D01*
X128081Y706374D02*
X128081Y713486D01*
X130056Y713486D01*
X130142Y713484D01*
X130228Y713478D01*
X130314Y713469D01*
X130399Y713456D01*
X130484Y713439D01*
X130567Y713419D01*
X130650Y713395D01*
X130732Y713367D01*
X130812Y713336D01*
X130891Y713301D01*
X130968Y713263D01*
X131044Y713221D01*
X131118Y713177D01*
X131189Y713129D01*
X131259Y713078D01*
X131326Y713024D01*
X131391Y712967D01*
X131453Y712907D01*
X131513Y712845D01*
X131570Y712780D01*
X131624Y712713D01*
X131675Y712643D01*
X131723Y712572D01*
X131767Y712498D01*
X131809Y712422D01*
X131847Y712345D01*
X131882Y712266D01*
X131913Y712186D01*
X131941Y712104D01*
X131965Y712021D01*
X131985Y711938D01*
X132002Y711853D01*
X132015Y711768D01*
X132024Y711682D01*
X132030Y711596D01*
X132032Y711510D01*
X132032Y708350D01*
X132030Y708264D01*
X132024Y708178D01*
X132015Y708092D01*
X132002Y708007D01*
X131985Y707922D01*
X131965Y707839D01*
X131941Y707756D01*
X131913Y707674D01*
X131882Y707594D01*
X131847Y707515D01*
X131809Y707438D01*
X131767Y707362D01*
X131723Y707288D01*
X131675Y707217D01*
X131624Y707147D01*
X131570Y707080D01*
X131513Y707015D01*
X131453Y706953D01*
X131391Y706893D01*
X131326Y706836D01*
X131259Y706782D01*
X131189Y706731D01*
X131118Y706683D01*
X131044Y706639D01*
X130968Y706597D01*
X130891Y706559D01*
X130812Y706524D01*
X130732Y706493D01*
X130650Y706465D01*
X130567Y706441D01*
X130484Y706421D01*
X130399Y706404D01*
X130314Y706391D01*
X130228Y706382D01*
X130142Y706376D01*
X130056Y706374D01*
X128081Y706374D01*
X110744Y688086D02*
X113115Y680974D01*
X115485Y688086D01*
X118319Y688086D02*
X118319Y680974D01*
X118319Y688086D02*
X120294Y688086D01*
X120381Y688084D01*
X120469Y688078D01*
X120556Y688069D01*
X120642Y688055D01*
X120728Y688038D01*
X120812Y688017D01*
X120896Y687992D01*
X120979Y687963D01*
X121060Y687931D01*
X121140Y687896D01*
X121218Y687857D01*
X121295Y687814D01*
X121369Y687768D01*
X121441Y687719D01*
X121511Y687667D01*
X121579Y687611D01*
X121644Y687553D01*
X121707Y687492D01*
X121766Y687428D01*
X121823Y687361D01*
X121877Y687293D01*
X121928Y687221D01*
X121975Y687148D01*
X122020Y687073D01*
X122061Y686995D01*
X122098Y686916D01*
X122132Y686836D01*
X122162Y686754D01*
X122189Y686671D01*
X122212Y686586D01*
X122231Y686501D01*
X122246Y686415D01*
X122258Y686328D01*
X122266Y686241D01*
X122270Y686154D01*
X122270Y686066D01*
X122266Y685979D01*
X122258Y685892D01*
X122246Y685805D01*
X122231Y685719D01*
X122212Y685634D01*
X122189Y685549D01*
X122162Y685466D01*
X122132Y685384D01*
X122098Y685304D01*
X122061Y685225D01*
X122020Y685147D01*
X121975Y685072D01*
X121928Y684999D01*
X121877Y684927D01*
X121823Y684859D01*
X121766Y684792D01*
X121707Y684728D01*
X121644Y684667D01*
X121579Y684609D01*
X121511Y684553D01*
X121441Y684501D01*
X121369Y684452D01*
X121295Y684406D01*
X121218Y684363D01*
X121140Y684324D01*
X121060Y684289D01*
X120979Y684257D01*
X120896Y684228D01*
X120812Y684203D01*
X120728Y684182D01*
X120642Y684165D01*
X120556Y684151D01*
X120469Y684142D01*
X120381Y684136D01*
X120294Y684134D01*
X120294Y684135D02*
X118319Y684135D01*
X125177Y680974D02*
X125177Y688086D01*
X127152Y688086D01*
X127239Y688084D01*
X127327Y688078D01*
X127414Y688069D01*
X127500Y688055D01*
X127586Y688038D01*
X127670Y688017D01*
X127754Y687992D01*
X127837Y687963D01*
X127918Y687931D01*
X127998Y687896D01*
X128076Y687857D01*
X128153Y687814D01*
X128227Y687768D01*
X128299Y687719D01*
X128369Y687667D01*
X128437Y687611D01*
X128502Y687553D01*
X128565Y687492D01*
X128624Y687428D01*
X128681Y687361D01*
X128735Y687293D01*
X128786Y687221D01*
X128833Y687148D01*
X128878Y687073D01*
X128919Y686995D01*
X128956Y686916D01*
X128990Y686836D01*
X129020Y686754D01*
X129047Y686671D01*
X129070Y686586D01*
X129089Y686501D01*
X129104Y686415D01*
X129116Y686328D01*
X129124Y686241D01*
X129128Y686154D01*
X129128Y686066D01*
X129124Y685979D01*
X129116Y685892D01*
X129104Y685805D01*
X129089Y685719D01*
X129070Y685634D01*
X129047Y685549D01*
X129020Y685466D01*
X128990Y685384D01*
X128956Y685304D01*
X128919Y685225D01*
X128878Y685147D01*
X128833Y685072D01*
X128786Y684999D01*
X128735Y684927D01*
X128681Y684859D01*
X128624Y684792D01*
X128565Y684728D01*
X128502Y684667D01*
X128437Y684609D01*
X128369Y684553D01*
X128299Y684501D01*
X128227Y684452D01*
X128153Y684406D01*
X128076Y684363D01*
X127998Y684324D01*
X127918Y684289D01*
X127837Y684257D01*
X127754Y684228D01*
X127670Y684203D01*
X127586Y684182D01*
X127500Y684165D01*
X127414Y684151D01*
X127327Y684142D01*
X127239Y684136D01*
X127152Y684134D01*
X127152Y684135D02*
X125177Y684135D01*
D12*
X198231Y647268D02*
X693530Y648132D01*
X693309Y775132D01*
X198010Y774268D01*
X198098Y723468D01*
X198410Y723465D01*
X198721Y723454D01*
X199032Y723435D01*
X199343Y723409D01*
X199653Y723375D01*
X199962Y723334D01*
X200269Y723285D01*
X200576Y723228D01*
X200881Y723164D01*
X201184Y723093D01*
X201486Y723014D01*
X201785Y722928D01*
X202083Y722834D01*
X202378Y722733D01*
X202670Y722625D01*
X202960Y722510D01*
X203246Y722387D01*
X203530Y722258D01*
X203810Y722122D01*
X204087Y721979D01*
X204361Y721829D01*
X204630Y721673D01*
X204896Y721509D01*
X205157Y721340D01*
X205415Y721164D01*
X205668Y720982D01*
X205916Y720794D01*
X206160Y720599D01*
X206399Y720399D01*
X206632Y720193D01*
X206861Y719981D01*
X207085Y719764D01*
X207303Y719541D01*
X207515Y719313D01*
X207722Y719080D01*
X207923Y718842D01*
X208118Y718599D01*
X208308Y718351D01*
X208491Y718099D01*
X208667Y717842D01*
X208838Y717581D01*
X209002Y717316D01*
X209159Y717047D01*
X209310Y716774D01*
X209454Y716498D01*
X209591Y716218D01*
X209721Y715935D01*
X209845Y715649D01*
X209961Y715359D01*
X210070Y715067D01*
X210172Y714773D01*
X210267Y714476D01*
X210354Y714177D01*
X210434Y713875D01*
X210507Y713572D01*
X210572Y713267D01*
X210629Y712961D01*
X210679Y712653D01*
X210722Y712345D01*
X210757Y712035D01*
X210784Y711724D01*
X210804Y711413D01*
X210816Y711102D01*
X210820Y710790D01*
X210817Y710483D01*
X210806Y710177D01*
X210788Y709870D01*
X210763Y709564D01*
X210730Y709259D01*
X210690Y708955D01*
X210642Y708652D01*
X210588Y708350D01*
X210526Y708049D01*
X210456Y707750D01*
X210380Y707453D01*
X210296Y707158D01*
X210205Y706865D01*
X210107Y706574D01*
X210003Y706285D01*
X209891Y705999D01*
X209772Y705716D01*
X209647Y705436D01*
X209514Y705159D01*
X209376Y704886D01*
X209230Y704615D01*
X209078Y704349D01*
X208920Y704086D01*
X208755Y703827D01*
X208584Y703572D01*
X208408Y703321D01*
X208225Y703075D01*
X208036Y702833D01*
X207841Y702595D01*
X207641Y702363D01*
X207435Y702135D01*
X207224Y701913D01*
X207007Y701695D01*
X206785Y701483D01*
X206558Y701277D01*
X206326Y701075D01*
X206090Y700880D01*
X205849Y700690D01*
X205603Y700507D01*
X205353Y700329D01*
X205098Y700157D01*
X204840Y699991D01*
X204577Y699832D01*
X204311Y699679D01*
X204042Y699533D01*
X203768Y699393D01*
X203492Y699260D01*
X203212Y699134D01*
X202930Y699014D01*
X202644Y698901D01*
X202356Y698795D01*
X202066Y698696D01*
X201773Y698605D01*
X201478Y698520D01*
X201181Y698442D01*
X200882Y698372D01*
X200582Y698309D01*
X200280Y698253D01*
X199977Y698204D01*
X199673Y698163D01*
X199368Y698129D01*
X199062Y698103D01*
X198756Y698084D01*
X198449Y698072D01*
X198142Y698068D01*
X198143Y698068D02*
X198231Y647268D01*
D10*
X537708Y708764D02*
X537694Y717202D01*
X537708Y708764D02*
X537710Y708651D01*
X537716Y708538D01*
X537726Y708425D01*
X537740Y708313D01*
X537758Y708201D01*
X537780Y708090D01*
X537806Y707979D01*
X537835Y707870D01*
X537869Y707762D01*
X537906Y707654D01*
X537946Y707549D01*
X537991Y707445D01*
X538039Y707342D01*
X538091Y707241D01*
X538146Y707142D01*
X538204Y707045D01*
X538266Y706950D01*
X538331Y706857D01*
X538400Y706767D01*
X538471Y706679D01*
X538546Y706594D01*
X538623Y706511D01*
X538703Y706431D01*
X538786Y706354D01*
X538872Y706280D01*
X538960Y706209D01*
X539051Y706141D01*
X539144Y706076D01*
X539239Y706014D01*
X539336Y705956D01*
X539435Y705901D01*
X539536Y705850D01*
X539639Y705802D01*
X539743Y705758D01*
X539849Y705718D01*
X539956Y705681D01*
X540065Y705648D01*
X540174Y705619D01*
X540285Y705594D01*
X540396Y705572D01*
X540508Y705555D01*
X540620Y705541D01*
X540733Y705532D01*
X540846Y705526D01*
X540960Y705524D01*
X541073Y705526D01*
X541186Y705532D01*
X541299Y705542D01*
X541411Y705556D01*
X541523Y705574D01*
X541634Y705596D01*
X541745Y705622D01*
X541854Y705651D01*
X541962Y705685D01*
X542070Y705722D01*
X542175Y705762D01*
X542279Y705807D01*
X542382Y705855D01*
X542483Y705907D01*
X542582Y705962D01*
X542679Y706020D01*
X542774Y706082D01*
X542867Y706147D01*
X542957Y706216D01*
X543045Y706287D01*
X543130Y706362D01*
X543213Y706439D01*
X543293Y706519D01*
X543370Y706602D01*
X543444Y706688D01*
X543515Y706776D01*
X543583Y706867D01*
X543648Y706960D01*
X543710Y707055D01*
X543768Y707152D01*
X543823Y707251D01*
X543874Y707352D01*
X543922Y707455D01*
X543966Y707559D01*
X544006Y707665D01*
X544043Y707772D01*
X544076Y707881D01*
X544105Y707990D01*
X544130Y708101D01*
X544152Y708212D01*
X544169Y708324D01*
X544183Y708436D01*
X544192Y708549D01*
X544198Y708662D01*
X544200Y708776D01*
X544199Y708775D02*
X544185Y717214D01*
X551988Y717227D02*
X552008Y705543D01*
X551998Y711385D02*
X550374Y712356D01*
X550373Y712357D02*
X550300Y712403D01*
X550228Y712452D01*
X550159Y712505D01*
X550092Y712561D01*
X550028Y712619D01*
X549967Y712681D01*
X549908Y712745D01*
X549852Y712812D01*
X549800Y712881D01*
X549750Y712952D01*
X549704Y713026D01*
X549661Y713101D01*
X549622Y713179D01*
X549586Y713258D01*
X549553Y713338D01*
X549524Y713420D01*
X549499Y713504D01*
X549478Y713588D01*
X549460Y713673D01*
X549447Y713759D01*
X549437Y713845D01*
X549431Y713932D01*
X549429Y714019D01*
X549431Y714106D01*
X549437Y714192D01*
X549446Y714279D01*
X549460Y714365D01*
X549477Y714450D01*
X549498Y714534D01*
X549523Y714617D01*
X549552Y714699D01*
X549584Y714780D01*
X549620Y714859D01*
X549659Y714937D01*
X549702Y715012D01*
X549748Y715086D01*
X549797Y715158D01*
X549850Y715227D01*
X549905Y715294D01*
X549964Y715358D01*
X550025Y715420D01*
X550089Y715478D01*
X550156Y715534D01*
X550225Y715587D01*
X550296Y715637D01*
X550369Y715683D01*
X550445Y715726D01*
X550522Y715766D01*
X550601Y715802D01*
X550682Y715834D01*
X550764Y715863D01*
X550847Y715889D01*
X550931Y715910D01*
X551016Y715928D01*
X551017Y715927D02*
X551157Y715951D01*
X551299Y715971D01*
X551440Y715987D01*
X551582Y715999D01*
X551725Y716007D01*
X551867Y716011D01*
X552010Y716012D01*
X552153Y716008D01*
X552295Y716000D01*
X552437Y715989D01*
X552579Y715973D01*
X552720Y715954D01*
X552861Y715931D01*
X553001Y715903D01*
X553140Y715872D01*
X553278Y715837D01*
X553416Y715799D01*
X553552Y715756D01*
X553687Y715710D01*
X553820Y715660D01*
X553952Y715606D01*
X554083Y715549D01*
X554212Y715488D01*
X554339Y715423D01*
X554464Y715355D01*
X554588Y715284D01*
X551998Y711385D02*
X553623Y710414D01*
X553696Y710368D01*
X553768Y710319D01*
X553837Y710266D01*
X553904Y710210D01*
X553968Y710152D01*
X554029Y710090D01*
X554088Y710026D01*
X554144Y709959D01*
X554196Y709890D01*
X554246Y709819D01*
X554292Y709745D01*
X554335Y709670D01*
X554374Y709592D01*
X554410Y709513D01*
X554443Y709433D01*
X554472Y709351D01*
X554497Y709267D01*
X554518Y709183D01*
X554536Y709098D01*
X554549Y709012D01*
X554559Y708926D01*
X554565Y708839D01*
X554567Y708752D01*
X554565Y708665D01*
X554559Y708579D01*
X554550Y708492D01*
X554536Y708406D01*
X554519Y708321D01*
X554498Y708237D01*
X554473Y708154D01*
X554444Y708072D01*
X554412Y707991D01*
X554376Y707912D01*
X554337Y707834D01*
X554294Y707759D01*
X554248Y707685D01*
X554199Y707613D01*
X554146Y707544D01*
X554091Y707477D01*
X554032Y707413D01*
X553971Y707351D01*
X553907Y707293D01*
X553840Y707237D01*
X553771Y707184D01*
X553700Y707134D01*
X553627Y707088D01*
X553551Y707045D01*
X553474Y707005D01*
X553395Y706969D01*
X553314Y706937D01*
X553232Y706908D01*
X553149Y706882D01*
X553065Y706861D01*
X552980Y706843D01*
X552980Y706842D02*
X552840Y706818D01*
X552698Y706798D01*
X552557Y706782D01*
X552415Y706770D01*
X552272Y706762D01*
X552130Y706758D01*
X551987Y706757D01*
X551844Y706761D01*
X551702Y706769D01*
X551560Y706780D01*
X551418Y706796D01*
X551277Y706815D01*
X551136Y706838D01*
X550996Y706866D01*
X550857Y706897D01*
X550718Y706932D01*
X550581Y706970D01*
X550445Y707013D01*
X550310Y707059D01*
X550176Y707109D01*
X550044Y707163D01*
X549914Y707220D01*
X549785Y707281D01*
X549658Y707346D01*
X549532Y707414D01*
X549409Y707485D01*
X559415Y714644D02*
X562656Y717246D01*
X562676Y705562D01*
X559431Y705556D02*
X565922Y705568D01*
D12*
X704850Y444500D02*
X107950Y444500D01*
X704850Y444500D02*
X704850Y571500D01*
X107950Y571500D01*
X107950Y520700D01*
X108257Y520696D01*
X108564Y520685D01*
X108870Y520667D01*
X109176Y520641D01*
X109481Y520607D01*
X109785Y520567D01*
X110088Y520519D01*
X110390Y520463D01*
X110690Y520401D01*
X110989Y520331D01*
X111286Y520254D01*
X111582Y520170D01*
X111875Y520078D01*
X112165Y519980D01*
X112453Y519875D01*
X112739Y519762D01*
X113022Y519643D01*
X113302Y519517D01*
X113579Y519385D01*
X113852Y519245D01*
X114122Y519099D01*
X114388Y518947D01*
X114651Y518788D01*
X114910Y518623D01*
X115164Y518452D01*
X115415Y518275D01*
X115661Y518091D01*
X115903Y517902D01*
X116139Y517707D01*
X116372Y517506D01*
X116599Y517300D01*
X116821Y517088D01*
X117038Y516871D01*
X117250Y516649D01*
X117456Y516422D01*
X117657Y516189D01*
X117852Y515953D01*
X118041Y515711D01*
X118225Y515465D01*
X118402Y515214D01*
X118573Y514960D01*
X118738Y514701D01*
X118897Y514438D01*
X119049Y514172D01*
X119195Y513902D01*
X119335Y513629D01*
X119467Y513352D01*
X119593Y513072D01*
X119712Y512789D01*
X119825Y512503D01*
X119930Y512215D01*
X120028Y511925D01*
X120120Y511632D01*
X120204Y511336D01*
X120281Y511039D01*
X120351Y510740D01*
X120413Y510440D01*
X120469Y510138D01*
X120517Y509835D01*
X120557Y509531D01*
X120591Y509226D01*
X120617Y508920D01*
X120635Y508614D01*
X120646Y508307D01*
X120650Y508000D01*
X120646Y507693D01*
X120635Y507386D01*
X120617Y507080D01*
X120591Y506774D01*
X120557Y506469D01*
X120517Y506165D01*
X120469Y505862D01*
X120413Y505560D01*
X120351Y505260D01*
X120281Y504961D01*
X120204Y504664D01*
X120120Y504368D01*
X120028Y504075D01*
X119930Y503785D01*
X119825Y503497D01*
X119712Y503211D01*
X119593Y502928D01*
X119467Y502648D01*
X119335Y502371D01*
X119195Y502098D01*
X119049Y501828D01*
X118897Y501562D01*
X118738Y501299D01*
X118573Y501040D01*
X118402Y500786D01*
X118225Y500535D01*
X118041Y500289D01*
X117852Y500047D01*
X117657Y499811D01*
X117456Y499578D01*
X117250Y499351D01*
X117038Y499129D01*
X116821Y498912D01*
X116599Y498700D01*
X116372Y498494D01*
X116139Y498293D01*
X115903Y498098D01*
X115661Y497909D01*
X115415Y497725D01*
X115164Y497548D01*
X114910Y497377D01*
X114651Y497212D01*
X114388Y497053D01*
X114122Y496901D01*
X113852Y496755D01*
X113579Y496615D01*
X113302Y496483D01*
X113022Y496357D01*
X112739Y496238D01*
X112453Y496125D01*
X112165Y496020D01*
X111875Y495922D01*
X111582Y495830D01*
X111286Y495746D01*
X110989Y495669D01*
X110690Y495599D01*
X110390Y495537D01*
X110088Y495481D01*
X109785Y495433D01*
X109481Y495393D01*
X109176Y495359D01*
X108870Y495333D01*
X108564Y495315D01*
X108257Y495304D01*
X107950Y495300D01*
X107950Y444500D01*
D10*
X498334Y505404D02*
X498334Y513842D01*
X498333Y505404D02*
X498335Y505291D01*
X498341Y505178D01*
X498351Y505065D01*
X498365Y504952D01*
X498382Y504840D01*
X498404Y504729D01*
X498429Y504619D01*
X498459Y504509D01*
X498492Y504401D01*
X498529Y504294D01*
X498569Y504188D01*
X498614Y504084D01*
X498662Y503981D01*
X498713Y503880D01*
X498768Y503781D01*
X498826Y503684D01*
X498888Y503589D01*
X498953Y503496D01*
X499021Y503406D01*
X499092Y503318D01*
X499167Y503232D01*
X499244Y503149D01*
X499324Y503069D01*
X499407Y502992D01*
X499493Y502917D01*
X499581Y502846D01*
X499671Y502778D01*
X499764Y502713D01*
X499859Y502651D01*
X499956Y502593D01*
X500055Y502538D01*
X500156Y502487D01*
X500259Y502439D01*
X500363Y502394D01*
X500469Y502354D01*
X500576Y502317D01*
X500684Y502284D01*
X500794Y502254D01*
X500904Y502229D01*
X501015Y502207D01*
X501127Y502190D01*
X501240Y502176D01*
X501353Y502166D01*
X501466Y502160D01*
X501579Y502158D01*
X501692Y502160D01*
X501805Y502166D01*
X501918Y502176D01*
X502031Y502190D01*
X502143Y502207D01*
X502254Y502229D01*
X502364Y502254D01*
X502474Y502284D01*
X502582Y502317D01*
X502689Y502354D01*
X502795Y502394D01*
X502899Y502439D01*
X503002Y502487D01*
X503103Y502538D01*
X503202Y502593D01*
X503299Y502651D01*
X503394Y502713D01*
X503487Y502778D01*
X503577Y502846D01*
X503665Y502917D01*
X503751Y502992D01*
X503834Y503069D01*
X503914Y503149D01*
X503991Y503232D01*
X504066Y503318D01*
X504137Y503406D01*
X504205Y503496D01*
X504270Y503589D01*
X504332Y503684D01*
X504390Y503781D01*
X504445Y503880D01*
X504496Y503981D01*
X504544Y504084D01*
X504589Y504188D01*
X504629Y504294D01*
X504666Y504401D01*
X504699Y504509D01*
X504729Y504619D01*
X504754Y504729D01*
X504776Y504840D01*
X504793Y504952D01*
X504807Y505065D01*
X504817Y505178D01*
X504823Y505291D01*
X504825Y505404D01*
X504825Y513842D01*
X512628Y513842D02*
X512628Y502158D01*
X512628Y508000D02*
X511006Y508974D01*
X511005Y508973D02*
X510932Y509020D01*
X510861Y509069D01*
X510791Y509122D01*
X510725Y509178D01*
X510661Y509237D01*
X510599Y509298D01*
X510541Y509362D01*
X510485Y509429D01*
X510433Y509498D01*
X510383Y509570D01*
X510337Y509644D01*
X510294Y509719D01*
X510255Y509797D01*
X510219Y509876D01*
X510187Y509957D01*
X510158Y510039D01*
X510133Y510122D01*
X510112Y510206D01*
X510095Y510291D01*
X510081Y510377D01*
X510072Y510463D01*
X510066Y510550D01*
X510064Y510637D01*
X510066Y510724D01*
X510072Y510811D01*
X510082Y510897D01*
X510095Y510983D01*
X510113Y511068D01*
X510134Y511152D01*
X510159Y511235D01*
X510188Y511318D01*
X510220Y511398D01*
X510256Y511477D01*
X510295Y511555D01*
X510338Y511630D01*
X510385Y511704D01*
X510434Y511775D01*
X510487Y511845D01*
X510542Y511911D01*
X510601Y511975D01*
X510662Y512037D01*
X510727Y512096D01*
X510793Y512151D01*
X510862Y512204D01*
X510934Y512254D01*
X511007Y512300D01*
X511083Y512343D01*
X511160Y512382D01*
X511239Y512418D01*
X511320Y512451D01*
X511402Y512479D01*
X511485Y512505D01*
X511569Y512526D01*
X511655Y512543D01*
X511655Y512544D02*
X511795Y512568D01*
X511937Y512588D01*
X512078Y512604D01*
X512220Y512615D01*
X512363Y512623D01*
X512505Y512627D01*
X512648Y512628D01*
X512791Y512624D01*
X512933Y512616D01*
X513075Y512604D01*
X513217Y512588D01*
X513358Y512569D01*
X513499Y512545D01*
X513639Y512518D01*
X513778Y512486D01*
X513916Y512451D01*
X514054Y512412D01*
X514190Y512369D01*
X514324Y512323D01*
X514458Y512272D01*
X514590Y512219D01*
X514720Y512161D01*
X514849Y512100D01*
X514976Y512035D01*
X515102Y511967D01*
X515225Y511895D01*
X512628Y508000D02*
X514251Y507026D01*
X514252Y507027D02*
X514325Y506980D01*
X514396Y506931D01*
X514466Y506878D01*
X514532Y506822D01*
X514596Y506763D01*
X514658Y506702D01*
X514716Y506638D01*
X514772Y506571D01*
X514824Y506502D01*
X514874Y506430D01*
X514920Y506356D01*
X514963Y506281D01*
X515002Y506203D01*
X515038Y506124D01*
X515070Y506043D01*
X515099Y505961D01*
X515124Y505878D01*
X515145Y505794D01*
X515162Y505709D01*
X515176Y505623D01*
X515185Y505537D01*
X515191Y505450D01*
X515193Y505363D01*
X515191Y505276D01*
X515185Y505189D01*
X515175Y505103D01*
X515162Y505017D01*
X515144Y504932D01*
X515123Y504848D01*
X515098Y504765D01*
X515069Y504682D01*
X515037Y504602D01*
X515001Y504523D01*
X514962Y504445D01*
X514919Y504370D01*
X514872Y504296D01*
X514823Y504225D01*
X514770Y504155D01*
X514715Y504089D01*
X514656Y504025D01*
X514595Y503963D01*
X514530Y503904D01*
X514464Y503849D01*
X514395Y503796D01*
X514323Y503746D01*
X514250Y503700D01*
X514174Y503657D01*
X514097Y503618D01*
X514018Y503582D01*
X513937Y503549D01*
X513855Y503521D01*
X513772Y503495D01*
X513688Y503474D01*
X513603Y503457D01*
X513602Y503456D02*
X513462Y503432D01*
X513320Y503412D01*
X513179Y503396D01*
X513037Y503385D01*
X512894Y503377D01*
X512752Y503373D01*
X512609Y503372D01*
X512466Y503376D01*
X512324Y503384D01*
X512182Y503396D01*
X512040Y503412D01*
X511899Y503431D01*
X511758Y503455D01*
X511618Y503482D01*
X511479Y503514D01*
X511341Y503549D01*
X511203Y503588D01*
X511067Y503631D01*
X510933Y503677D01*
X510799Y503728D01*
X510667Y503781D01*
X510537Y503839D01*
X510408Y503900D01*
X510281Y503965D01*
X510155Y504033D01*
X510032Y504105D01*
X523621Y513842D02*
X523728Y513840D01*
X523834Y513834D01*
X523940Y513824D01*
X524046Y513811D01*
X524152Y513793D01*
X524256Y513772D01*
X524360Y513747D01*
X524463Y513718D01*
X524564Y513686D01*
X524664Y513649D01*
X524763Y513609D01*
X524861Y513566D01*
X524957Y513519D01*
X525051Y513468D01*
X525143Y513414D01*
X525233Y513357D01*
X525321Y513297D01*
X525406Y513233D01*
X525489Y513166D01*
X525570Y513096D01*
X525648Y513024D01*
X525724Y512948D01*
X525796Y512870D01*
X525866Y512789D01*
X525933Y512706D01*
X525997Y512621D01*
X526057Y512533D01*
X526114Y512443D01*
X526168Y512351D01*
X526219Y512257D01*
X526266Y512161D01*
X526309Y512063D01*
X526349Y511964D01*
X526386Y511864D01*
X526418Y511763D01*
X526447Y511660D01*
X526472Y511556D01*
X526493Y511452D01*
X526511Y511346D01*
X526524Y511240D01*
X526534Y511134D01*
X526540Y511028D01*
X526542Y510921D01*
X523621Y513842D02*
X523500Y513840D01*
X523379Y513834D01*
X523259Y513824D01*
X523138Y513811D01*
X523019Y513793D01*
X522899Y513772D01*
X522781Y513747D01*
X522664Y513718D01*
X522547Y513685D01*
X522432Y513649D01*
X522318Y513608D01*
X522205Y513565D01*
X522093Y513517D01*
X521984Y513466D01*
X521876Y513411D01*
X521769Y513353D01*
X521665Y513292D01*
X521563Y513227D01*
X521463Y513159D01*
X521365Y513088D01*
X521269Y513014D01*
X521176Y512937D01*
X521086Y512856D01*
X520998Y512773D01*
X520913Y512687D01*
X520830Y512598D01*
X520751Y512507D01*
X520674Y512413D01*
X520601Y512317D01*
X520531Y512219D01*
X520464Y512118D01*
X520400Y512015D01*
X520340Y511910D01*
X520283Y511803D01*
X520229Y511695D01*
X520179Y511585D01*
X520133Y511473D01*
X520090Y511360D01*
X520051Y511245D01*
X525569Y508649D02*
X525648Y508726D01*
X525724Y508807D01*
X525797Y508890D01*
X525867Y508975D01*
X525934Y509063D01*
X525998Y509153D01*
X526058Y509245D01*
X526115Y509340D01*
X526169Y509436D01*
X526220Y509534D01*
X526267Y509634D01*
X526311Y509736D01*
X526351Y509839D01*
X526387Y509943D01*
X526419Y510049D01*
X526448Y510155D01*
X526473Y510263D01*
X526495Y510371D01*
X526512Y510481D01*
X526526Y510590D01*
X526535Y510700D01*
X526541Y510811D01*
X526543Y510921D01*
X525568Y508649D02*
X520051Y502158D01*
X526542Y502158D01*
D13*
X292100Y222250D02*
X292100Y209550D01*
X285750Y203200D01*
X273050Y203200D02*
X266700Y209550D01*
X292100Y247650D02*
X285750Y254000D01*
X292100Y247650D02*
X292100Y234950D01*
X285750Y228600D01*
X273050Y228600D02*
X266700Y234950D01*
X266700Y247650D01*
X273050Y254000D01*
X285750Y228600D02*
X292100Y222250D01*
X273050Y228600D02*
X266700Y222250D01*
X266700Y209550D01*
X292100Y285750D02*
X292100Y298450D01*
X292100Y285750D02*
X285750Y279400D01*
X273050Y279400D02*
X266700Y285750D01*
X285750Y279400D02*
X292100Y273050D01*
X292100Y260350D01*
X285750Y254000D01*
X273050Y254000D02*
X266700Y260350D01*
X266700Y273050D01*
X273050Y279400D01*
X292100Y323850D02*
X285750Y330200D01*
X292100Y323850D02*
X292100Y311150D01*
X285750Y304800D01*
X273050Y304800D02*
X266700Y311150D01*
X266700Y323850D01*
X273050Y330200D01*
X285750Y304800D02*
X292100Y298450D01*
X273050Y304800D02*
X266700Y298450D01*
X266700Y285750D01*
X292100Y361950D02*
X292100Y374650D01*
X292100Y361950D02*
X285750Y355600D01*
X273050Y355600D02*
X266700Y361950D01*
X285750Y355600D02*
X292100Y349250D01*
X292100Y336550D01*
X285750Y330200D01*
X273050Y330200D02*
X266700Y336550D01*
X266700Y349250D01*
X273050Y355600D01*
X273050Y381000D02*
X285750Y381000D01*
X292100Y374650D01*
X273050Y381000D02*
X266700Y374650D01*
X266700Y361950D01*
X273050Y203200D02*
X285750Y203200D01*
D14*
X254000Y393700D02*
X508000Y393700D01*
X254000Y393700D02*
X254000Y190500D01*
X508000Y190500D01*
X508000Y393700D01*
D15*
X300694Y364871D02*
X297561Y374269D01*
X303826Y374269D02*
X300694Y364871D01*
X309290Y364871D02*
X311378Y364871D01*
X309290Y364871D02*
X309201Y364873D01*
X309113Y364879D01*
X309025Y364888D01*
X308937Y364901D01*
X308850Y364918D01*
X308764Y364938D01*
X308679Y364963D01*
X308594Y364990D01*
X308511Y365022D01*
X308430Y365056D01*
X308350Y365095D01*
X308272Y365136D01*
X308195Y365181D01*
X308121Y365229D01*
X308048Y365280D01*
X307978Y365334D01*
X307911Y365392D01*
X307845Y365452D01*
X307783Y365514D01*
X307723Y365580D01*
X307665Y365647D01*
X307611Y365717D01*
X307560Y365790D01*
X307512Y365864D01*
X307467Y365941D01*
X307426Y366019D01*
X307387Y366099D01*
X307353Y366180D01*
X307321Y366263D01*
X307294Y366348D01*
X307269Y366433D01*
X307249Y366519D01*
X307232Y366606D01*
X307219Y366694D01*
X307210Y366782D01*
X307204Y366870D01*
X307202Y366959D01*
X307201Y366959D02*
X307201Y372181D01*
X307202Y372181D02*
X307204Y372272D01*
X307210Y372363D01*
X307220Y372454D01*
X307234Y372544D01*
X307251Y372633D01*
X307273Y372721D01*
X307299Y372809D01*
X307328Y372895D01*
X307361Y372980D01*
X307398Y373063D01*
X307438Y373145D01*
X307482Y373225D01*
X307529Y373303D01*
X307580Y373379D01*
X307633Y373452D01*
X307690Y373523D01*
X307751Y373592D01*
X307814Y373657D01*
X307879Y373720D01*
X307948Y373780D01*
X308019Y373838D01*
X308092Y373891D01*
X308168Y373942D01*
X308246Y373989D01*
X308326Y374033D01*
X308408Y374073D01*
X308491Y374110D01*
X308576Y374143D01*
X308662Y374172D01*
X308750Y374198D01*
X308838Y374220D01*
X308927Y374237D01*
X309017Y374251D01*
X309108Y374261D01*
X309199Y374267D01*
X309290Y374269D01*
X311378Y374269D01*
X316910Y364871D02*
X318998Y364871D01*
X316910Y364871D02*
X316821Y364873D01*
X316733Y364879D01*
X316645Y364888D01*
X316557Y364901D01*
X316470Y364918D01*
X316384Y364938D01*
X316299Y364963D01*
X316214Y364990D01*
X316131Y365022D01*
X316050Y365056D01*
X315970Y365095D01*
X315892Y365136D01*
X315815Y365181D01*
X315741Y365229D01*
X315668Y365280D01*
X315598Y365334D01*
X315531Y365392D01*
X315465Y365452D01*
X315403Y365514D01*
X315343Y365580D01*
X315285Y365647D01*
X315231Y365717D01*
X315180Y365790D01*
X315132Y365864D01*
X315087Y365941D01*
X315046Y366019D01*
X315007Y366099D01*
X314973Y366180D01*
X314941Y366263D01*
X314914Y366348D01*
X314889Y366433D01*
X314869Y366519D01*
X314852Y366606D01*
X314839Y366694D01*
X314830Y366782D01*
X314824Y366870D01*
X314822Y366959D01*
X314821Y366959D02*
X314821Y372181D01*
X314822Y372181D02*
X314824Y372272D01*
X314830Y372363D01*
X314840Y372454D01*
X314854Y372544D01*
X314871Y372633D01*
X314893Y372721D01*
X314919Y372809D01*
X314948Y372895D01*
X314981Y372980D01*
X315018Y373063D01*
X315058Y373145D01*
X315102Y373225D01*
X315149Y373303D01*
X315200Y373379D01*
X315253Y373452D01*
X315310Y373523D01*
X315371Y373592D01*
X315434Y373657D01*
X315499Y373720D01*
X315568Y373780D01*
X315639Y373838D01*
X315712Y373891D01*
X315788Y373942D01*
X315866Y373989D01*
X315946Y374033D01*
X316028Y374073D01*
X316111Y374110D01*
X316196Y374143D01*
X316282Y374172D01*
X316370Y374198D01*
X316458Y374220D01*
X316547Y374237D01*
X316637Y374251D01*
X316728Y374261D01*
X316819Y374267D01*
X316910Y374269D01*
X318998Y374269D01*
X310504Y350393D02*
X297180Y350393D01*
X299649Y339471D02*
X301738Y339471D01*
X299649Y339471D02*
X299560Y339473D01*
X299472Y339479D01*
X299384Y339488D01*
X299296Y339501D01*
X299209Y339518D01*
X299123Y339538D01*
X299038Y339563D01*
X298953Y339590D01*
X298870Y339622D01*
X298789Y339656D01*
X298709Y339695D01*
X298631Y339736D01*
X298554Y339781D01*
X298480Y339829D01*
X298407Y339880D01*
X298337Y339934D01*
X298270Y339992D01*
X298204Y340052D01*
X298142Y340114D01*
X298082Y340180D01*
X298024Y340247D01*
X297970Y340317D01*
X297919Y340390D01*
X297871Y340464D01*
X297826Y340541D01*
X297785Y340619D01*
X297746Y340699D01*
X297712Y340780D01*
X297680Y340863D01*
X297653Y340948D01*
X297628Y341033D01*
X297608Y341119D01*
X297591Y341206D01*
X297578Y341294D01*
X297569Y341382D01*
X297563Y341470D01*
X297561Y341559D01*
X297561Y346781D01*
X297563Y346872D01*
X297569Y346963D01*
X297579Y347054D01*
X297593Y347144D01*
X297610Y347233D01*
X297632Y347321D01*
X297658Y347409D01*
X297687Y347495D01*
X297720Y347580D01*
X297757Y347663D01*
X297797Y347745D01*
X297841Y347825D01*
X297888Y347903D01*
X297939Y347979D01*
X297992Y348052D01*
X298049Y348123D01*
X298110Y348192D01*
X298173Y348257D01*
X298238Y348320D01*
X298307Y348380D01*
X298378Y348438D01*
X298451Y348491D01*
X298527Y348542D01*
X298605Y348589D01*
X298685Y348633D01*
X298767Y348673D01*
X298850Y348710D01*
X298935Y348743D01*
X299021Y348772D01*
X299109Y348798D01*
X299197Y348820D01*
X299286Y348837D01*
X299376Y348851D01*
X299467Y348861D01*
X299558Y348867D01*
X299649Y348869D01*
X301738Y348869D01*
X310123Y341559D02*
X310121Y341470D01*
X310115Y341382D01*
X310106Y341294D01*
X310093Y341206D01*
X310076Y341119D01*
X310056Y341033D01*
X310031Y340948D01*
X310004Y340863D01*
X309972Y340780D01*
X309938Y340699D01*
X309899Y340619D01*
X309858Y340541D01*
X309813Y340464D01*
X309765Y340390D01*
X309714Y340317D01*
X309660Y340247D01*
X309602Y340180D01*
X309542Y340114D01*
X309480Y340052D01*
X309414Y339992D01*
X309347Y339934D01*
X309277Y339880D01*
X309204Y339829D01*
X309130Y339781D01*
X309053Y339736D01*
X308975Y339695D01*
X308895Y339656D01*
X308814Y339622D01*
X308731Y339590D01*
X308646Y339563D01*
X308561Y339538D01*
X308475Y339518D01*
X308388Y339501D01*
X308300Y339488D01*
X308212Y339479D01*
X308124Y339473D01*
X308035Y339471D01*
X307906Y339473D01*
X307777Y339479D01*
X307648Y339488D01*
X307520Y339501D01*
X307392Y339518D01*
X307265Y339539D01*
X307138Y339563D01*
X307012Y339591D01*
X306887Y339623D01*
X306763Y339658D01*
X306640Y339697D01*
X306518Y339740D01*
X306398Y339786D01*
X306279Y339836D01*
X306161Y339889D01*
X306045Y339945D01*
X305931Y340005D01*
X305818Y340068D01*
X305708Y340135D01*
X305599Y340204D01*
X305493Y340277D01*
X305388Y340353D01*
X305286Y340432D01*
X305187Y340514D01*
X305089Y340598D01*
X304994Y340686D01*
X304902Y340776D01*
X305163Y346781D02*
X305165Y346870D01*
X305171Y346958D01*
X305180Y347046D01*
X305193Y347134D01*
X305210Y347221D01*
X305230Y347307D01*
X305255Y347392D01*
X305282Y347477D01*
X305314Y347560D01*
X305348Y347641D01*
X305387Y347721D01*
X305428Y347799D01*
X305473Y347876D01*
X305521Y347950D01*
X305572Y348023D01*
X305626Y348093D01*
X305684Y348160D01*
X305744Y348226D01*
X305806Y348288D01*
X305872Y348348D01*
X305939Y348406D01*
X306009Y348460D01*
X306082Y348511D01*
X306156Y348559D01*
X306233Y348604D01*
X306311Y348645D01*
X306391Y348684D01*
X306472Y348718D01*
X306555Y348750D01*
X306640Y348777D01*
X306725Y348802D01*
X306811Y348822D01*
X306898Y348839D01*
X306986Y348852D01*
X307074Y348861D01*
X307162Y348867D01*
X307251Y348869D01*
X307371Y348867D01*
X307491Y348862D01*
X307611Y348852D01*
X307730Y348840D01*
X307849Y348823D01*
X307967Y348803D01*
X308085Y348779D01*
X308201Y348752D01*
X308317Y348721D01*
X308432Y348687D01*
X308546Y348649D01*
X308659Y348607D01*
X308770Y348562D01*
X308880Y348514D01*
X308988Y348463D01*
X309095Y348408D01*
X309200Y348350D01*
X309303Y348288D01*
X309404Y348224D01*
X309504Y348156D01*
X309601Y348086D01*
X306207Y344954D02*
X306129Y345002D01*
X306053Y345054D01*
X305980Y345108D01*
X305909Y345166D01*
X305840Y345227D01*
X305774Y345291D01*
X305711Y345358D01*
X305651Y345427D01*
X305594Y345499D01*
X305540Y345573D01*
X305490Y345650D01*
X305442Y345729D01*
X305399Y345809D01*
X305358Y345892D01*
X305322Y345976D01*
X305289Y346061D01*
X305260Y346148D01*
X305234Y346237D01*
X305212Y346326D01*
X305195Y346416D01*
X305181Y346506D01*
X305171Y346598D01*
X305165Y346689D01*
X305163Y346781D01*
X309079Y343386D02*
X309157Y343338D01*
X309233Y343286D01*
X309306Y343232D01*
X309377Y343174D01*
X309446Y343113D01*
X309512Y343049D01*
X309575Y342982D01*
X309635Y342913D01*
X309692Y342841D01*
X309746Y342767D01*
X309796Y342690D01*
X309844Y342611D01*
X309887Y342531D01*
X309928Y342448D01*
X309964Y342364D01*
X309997Y342279D01*
X310026Y342192D01*
X310052Y342103D01*
X310074Y342014D01*
X310091Y341924D01*
X310105Y341834D01*
X310115Y341742D01*
X310121Y341651D01*
X310123Y341559D01*
X309079Y343387D02*
X306207Y344953D01*
X297561Y323469D02*
X297561Y314071D01*
X297561Y323469D02*
X300172Y323469D01*
X300272Y323467D01*
X300372Y323461D01*
X300471Y323452D01*
X300571Y323438D01*
X300669Y323421D01*
X300767Y323400D01*
X300864Y323376D01*
X300960Y323347D01*
X301055Y323315D01*
X301148Y323280D01*
X301240Y323241D01*
X301331Y323198D01*
X301419Y323152D01*
X301506Y323102D01*
X301591Y323050D01*
X301674Y322994D01*
X301755Y322935D01*
X301833Y322872D01*
X301909Y322807D01*
X301983Y322739D01*
X302053Y322669D01*
X302121Y322595D01*
X302186Y322519D01*
X302249Y322441D01*
X302308Y322360D01*
X302364Y322277D01*
X302416Y322192D01*
X302466Y322105D01*
X302512Y322017D01*
X302555Y321926D01*
X302594Y321834D01*
X302629Y321741D01*
X302661Y321646D01*
X302690Y321550D01*
X302714Y321453D01*
X302735Y321355D01*
X302752Y321257D01*
X302766Y321157D01*
X302775Y321058D01*
X302781Y320958D01*
X302783Y320858D01*
X302782Y320858D02*
X302782Y316682D01*
X302783Y316682D02*
X302781Y316582D01*
X302775Y316482D01*
X302766Y316383D01*
X302752Y316283D01*
X302735Y316185D01*
X302714Y316087D01*
X302690Y315990D01*
X302661Y315894D01*
X302629Y315799D01*
X302594Y315706D01*
X302555Y315614D01*
X302512Y315523D01*
X302466Y315435D01*
X302416Y315348D01*
X302364Y315263D01*
X302308Y315180D01*
X302249Y315099D01*
X302186Y315021D01*
X302121Y314945D01*
X302053Y314871D01*
X301983Y314801D01*
X301909Y314733D01*
X301833Y314668D01*
X301755Y314605D01*
X301674Y314546D01*
X301591Y314490D01*
X301506Y314438D01*
X301419Y314388D01*
X301331Y314342D01*
X301240Y314299D01*
X301148Y314260D01*
X301055Y314225D01*
X300960Y314193D01*
X300864Y314164D01*
X300767Y314140D01*
X300669Y314119D01*
X300571Y314102D01*
X300471Y314088D01*
X300372Y314079D01*
X300272Y314073D01*
X300172Y314071D01*
X297561Y314071D01*
X307792Y314071D02*
X307792Y323469D01*
X306747Y314071D02*
X308836Y314071D01*
X308836Y323469D02*
X306747Y323469D01*
X302782Y290759D02*
X302780Y290670D01*
X302774Y290582D01*
X302765Y290494D01*
X302752Y290406D01*
X302735Y290319D01*
X302715Y290233D01*
X302690Y290148D01*
X302663Y290063D01*
X302631Y289980D01*
X302597Y289899D01*
X302558Y289819D01*
X302517Y289741D01*
X302472Y289664D01*
X302424Y289590D01*
X302373Y289517D01*
X302319Y289447D01*
X302261Y289380D01*
X302201Y289314D01*
X302139Y289252D01*
X302073Y289192D01*
X302006Y289134D01*
X301936Y289080D01*
X301863Y289029D01*
X301789Y288981D01*
X301712Y288936D01*
X301634Y288895D01*
X301554Y288856D01*
X301473Y288822D01*
X301390Y288790D01*
X301305Y288763D01*
X301220Y288738D01*
X301134Y288718D01*
X301047Y288701D01*
X300959Y288688D01*
X300871Y288679D01*
X300783Y288673D01*
X300694Y288671D01*
X300565Y288673D01*
X300436Y288679D01*
X300307Y288688D01*
X300179Y288701D01*
X300051Y288718D01*
X299924Y288739D01*
X299797Y288763D01*
X299671Y288791D01*
X299546Y288823D01*
X299422Y288858D01*
X299299Y288897D01*
X299177Y288940D01*
X299057Y288986D01*
X298938Y289036D01*
X298820Y289089D01*
X298704Y289145D01*
X298590Y289205D01*
X298477Y289268D01*
X298367Y289335D01*
X298258Y289404D01*
X298152Y289477D01*
X298047Y289553D01*
X297945Y289632D01*
X297846Y289714D01*
X297748Y289798D01*
X297653Y289886D01*
X297561Y289976D01*
X297822Y295981D02*
X297824Y296070D01*
X297830Y296158D01*
X297839Y296246D01*
X297852Y296334D01*
X297869Y296421D01*
X297889Y296507D01*
X297914Y296592D01*
X297941Y296677D01*
X297973Y296760D01*
X298007Y296841D01*
X298046Y296921D01*
X298087Y296999D01*
X298132Y297076D01*
X298180Y297150D01*
X298231Y297223D01*
X298285Y297293D01*
X298343Y297360D01*
X298403Y297426D01*
X298465Y297488D01*
X298531Y297548D01*
X298598Y297606D01*
X298668Y297660D01*
X298741Y297711D01*
X298815Y297759D01*
X298892Y297804D01*
X298970Y297845D01*
X299050Y297884D01*
X299131Y297918D01*
X299214Y297950D01*
X299299Y297977D01*
X299384Y298002D01*
X299470Y298022D01*
X299557Y298039D01*
X299645Y298052D01*
X299733Y298061D01*
X299821Y298067D01*
X299910Y298069D01*
X300030Y298067D01*
X300150Y298062D01*
X300270Y298052D01*
X300389Y298040D01*
X300508Y298023D01*
X300626Y298003D01*
X300744Y297979D01*
X300860Y297952D01*
X300976Y297921D01*
X301091Y297887D01*
X301205Y297849D01*
X301318Y297807D01*
X301429Y297762D01*
X301539Y297714D01*
X301647Y297663D01*
X301754Y297608D01*
X301859Y297550D01*
X301962Y297488D01*
X302063Y297424D01*
X302163Y297356D01*
X302260Y297286D01*
X298866Y294154D02*
X298788Y294202D01*
X298712Y294254D01*
X298639Y294308D01*
X298568Y294366D01*
X298499Y294427D01*
X298433Y294491D01*
X298370Y294558D01*
X298310Y294627D01*
X298253Y294699D01*
X298199Y294773D01*
X298149Y294850D01*
X298101Y294929D01*
X298058Y295009D01*
X298017Y295092D01*
X297981Y295176D01*
X297948Y295261D01*
X297919Y295348D01*
X297893Y295437D01*
X297871Y295526D01*
X297854Y295616D01*
X297840Y295706D01*
X297830Y295798D01*
X297824Y295889D01*
X297822Y295981D01*
X301738Y292586D02*
X301816Y292538D01*
X301892Y292486D01*
X301965Y292432D01*
X302036Y292374D01*
X302105Y292313D01*
X302171Y292249D01*
X302234Y292182D01*
X302294Y292113D01*
X302351Y292041D01*
X302405Y291967D01*
X302455Y291890D01*
X302503Y291811D01*
X302546Y291731D01*
X302587Y291648D01*
X302623Y291564D01*
X302656Y291479D01*
X302685Y291392D01*
X302711Y291303D01*
X302733Y291214D01*
X302750Y291124D01*
X302764Y291034D01*
X302774Y290942D01*
X302780Y290851D01*
X302782Y290759D01*
X301738Y292587D02*
X298866Y294153D01*
X308463Y288671D02*
X310551Y288671D01*
X308463Y288671D02*
X308374Y288673D01*
X308286Y288679D01*
X308198Y288688D01*
X308110Y288701D01*
X308023Y288718D01*
X307937Y288738D01*
X307852Y288763D01*
X307767Y288790D01*
X307684Y288822D01*
X307603Y288856D01*
X307523Y288895D01*
X307445Y288936D01*
X307368Y288981D01*
X307294Y289029D01*
X307221Y289080D01*
X307151Y289134D01*
X307084Y289192D01*
X307018Y289252D01*
X306956Y289314D01*
X306896Y289380D01*
X306838Y289447D01*
X306784Y289517D01*
X306733Y289590D01*
X306685Y289664D01*
X306640Y289741D01*
X306599Y289819D01*
X306560Y289899D01*
X306526Y289980D01*
X306494Y290063D01*
X306467Y290148D01*
X306442Y290233D01*
X306422Y290319D01*
X306405Y290406D01*
X306392Y290494D01*
X306383Y290582D01*
X306377Y290670D01*
X306375Y290759D01*
X306374Y290759D02*
X306374Y295981D01*
X306375Y295981D02*
X306377Y296072D01*
X306383Y296163D01*
X306393Y296254D01*
X306407Y296344D01*
X306424Y296433D01*
X306446Y296521D01*
X306472Y296609D01*
X306501Y296695D01*
X306534Y296780D01*
X306571Y296863D01*
X306611Y296945D01*
X306655Y297025D01*
X306702Y297103D01*
X306753Y297179D01*
X306806Y297252D01*
X306863Y297323D01*
X306924Y297392D01*
X306987Y297457D01*
X307052Y297520D01*
X307121Y297580D01*
X307192Y297638D01*
X307265Y297691D01*
X307341Y297742D01*
X307419Y297789D01*
X307499Y297833D01*
X307581Y297873D01*
X307664Y297910D01*
X307749Y297943D01*
X307835Y297972D01*
X307923Y297998D01*
X308011Y298020D01*
X308100Y298037D01*
X308190Y298051D01*
X308281Y298061D01*
X308372Y298067D01*
X308463Y298069D01*
X310551Y298069D01*
X314456Y298069D02*
X314456Y288671D01*
X314456Y292326D02*
X319677Y298069D01*
X316545Y294414D02*
X319677Y288671D01*
X297561Y272669D02*
X297561Y263271D01*
X297561Y272669D02*
X300172Y272669D01*
X300272Y272667D01*
X300372Y272661D01*
X300471Y272652D01*
X300571Y272638D01*
X300669Y272621D01*
X300767Y272600D01*
X300864Y272576D01*
X300960Y272547D01*
X301055Y272515D01*
X301148Y272480D01*
X301240Y272441D01*
X301331Y272398D01*
X301419Y272352D01*
X301506Y272302D01*
X301591Y272250D01*
X301674Y272194D01*
X301755Y272135D01*
X301833Y272072D01*
X301909Y272007D01*
X301983Y271939D01*
X302053Y271869D01*
X302121Y271795D01*
X302186Y271719D01*
X302249Y271641D01*
X302308Y271560D01*
X302364Y271477D01*
X302416Y271392D01*
X302466Y271305D01*
X302512Y271217D01*
X302555Y271126D01*
X302594Y271034D01*
X302629Y270941D01*
X302661Y270846D01*
X302690Y270750D01*
X302714Y270653D01*
X302735Y270555D01*
X302752Y270457D01*
X302766Y270357D01*
X302775Y270258D01*
X302781Y270158D01*
X302783Y270058D01*
X302782Y270058D02*
X302782Y265882D01*
X302783Y265882D02*
X302781Y265782D01*
X302775Y265682D01*
X302766Y265583D01*
X302752Y265483D01*
X302735Y265385D01*
X302714Y265287D01*
X302690Y265190D01*
X302661Y265094D01*
X302629Y264999D01*
X302594Y264906D01*
X302555Y264814D01*
X302512Y264723D01*
X302466Y264635D01*
X302416Y264548D01*
X302364Y264463D01*
X302308Y264380D01*
X302249Y264299D01*
X302186Y264221D01*
X302121Y264145D01*
X302053Y264071D01*
X301983Y264001D01*
X301909Y263933D01*
X301833Y263868D01*
X301755Y263805D01*
X301674Y263746D01*
X301591Y263690D01*
X301506Y263638D01*
X301419Y263588D01*
X301331Y263542D01*
X301240Y263499D01*
X301148Y263460D01*
X301055Y263425D01*
X300960Y263393D01*
X300864Y263364D01*
X300767Y263340D01*
X300669Y263319D01*
X300571Y263302D01*
X300471Y263288D01*
X300372Y263279D01*
X300272Y263273D01*
X300172Y263271D01*
X297561Y263271D01*
X307010Y265882D02*
X307010Y270058D01*
X307009Y270058D02*
X307011Y270159D01*
X307017Y270260D01*
X307027Y270361D01*
X307040Y270461D01*
X307058Y270561D01*
X307079Y270660D01*
X307105Y270758D01*
X307134Y270855D01*
X307166Y270951D01*
X307203Y271045D01*
X307243Y271138D01*
X307287Y271230D01*
X307334Y271319D01*
X307385Y271407D01*
X307439Y271493D01*
X307496Y271576D01*
X307556Y271658D01*
X307620Y271736D01*
X307686Y271813D01*
X307756Y271886D01*
X307828Y271957D01*
X307903Y272025D01*
X307981Y272090D01*
X308061Y272152D01*
X308143Y272211D01*
X308228Y272267D01*
X308315Y272319D01*
X308403Y272368D01*
X308494Y272414D01*
X308586Y272455D01*
X308680Y272494D01*
X308775Y272528D01*
X308871Y272559D01*
X308969Y272586D01*
X309067Y272610D01*
X309167Y272629D01*
X309267Y272645D01*
X309367Y272657D01*
X309468Y272665D01*
X309569Y272669D01*
X309671Y272669D01*
X309772Y272665D01*
X309873Y272657D01*
X309973Y272645D01*
X310073Y272629D01*
X310173Y272610D01*
X310271Y272586D01*
X310369Y272559D01*
X310465Y272528D01*
X310560Y272494D01*
X310654Y272455D01*
X310746Y272414D01*
X310837Y272368D01*
X310926Y272319D01*
X311012Y272267D01*
X311097Y272211D01*
X311179Y272152D01*
X311259Y272090D01*
X311337Y272025D01*
X311412Y271957D01*
X311484Y271886D01*
X311554Y271813D01*
X311620Y271736D01*
X311684Y271658D01*
X311744Y271576D01*
X311801Y271493D01*
X311855Y271407D01*
X311906Y271319D01*
X311953Y271230D01*
X311997Y271138D01*
X312037Y271045D01*
X312074Y270951D01*
X312106Y270855D01*
X312135Y270758D01*
X312161Y270660D01*
X312182Y270561D01*
X312200Y270461D01*
X312213Y270361D01*
X312223Y270260D01*
X312229Y270159D01*
X312231Y270058D01*
X312231Y265882D01*
X312229Y265781D01*
X312223Y265680D01*
X312213Y265579D01*
X312200Y265479D01*
X312182Y265379D01*
X312161Y265280D01*
X312135Y265182D01*
X312106Y265085D01*
X312074Y264989D01*
X312037Y264895D01*
X311997Y264802D01*
X311953Y264710D01*
X311906Y264621D01*
X311855Y264533D01*
X311801Y264447D01*
X311744Y264364D01*
X311684Y264282D01*
X311620Y264204D01*
X311554Y264127D01*
X311484Y264054D01*
X311412Y263983D01*
X311337Y263915D01*
X311259Y263850D01*
X311179Y263788D01*
X311097Y263729D01*
X311012Y263673D01*
X310925Y263621D01*
X310837Y263572D01*
X310746Y263526D01*
X310654Y263485D01*
X310560Y263446D01*
X310465Y263412D01*
X310369Y263381D01*
X310271Y263354D01*
X310173Y263330D01*
X310073Y263311D01*
X309973Y263295D01*
X309873Y263283D01*
X309772Y263275D01*
X309671Y263271D01*
X309569Y263271D01*
X309468Y263275D01*
X309367Y263283D01*
X309267Y263295D01*
X309167Y263311D01*
X309067Y263330D01*
X308969Y263354D01*
X308871Y263381D01*
X308775Y263412D01*
X308680Y263446D01*
X308586Y263485D01*
X308494Y263526D01*
X308403Y263572D01*
X308315Y263621D01*
X308228Y263673D01*
X308143Y263729D01*
X308061Y263788D01*
X307981Y263850D01*
X307903Y263915D01*
X307828Y263983D01*
X307756Y264054D01*
X307686Y264127D01*
X307620Y264204D01*
X307556Y264282D01*
X307496Y264364D01*
X307439Y264447D01*
X307385Y264533D01*
X307334Y264621D01*
X307287Y264710D01*
X307243Y264802D01*
X307203Y264895D01*
X307166Y264989D01*
X307134Y265085D01*
X307105Y265182D01*
X307079Y265280D01*
X307058Y265379D01*
X307040Y265479D01*
X307027Y265579D01*
X307017Y265680D01*
X307011Y265781D01*
X307009Y265882D01*
X301738Y237871D02*
X299649Y237871D01*
X299560Y237873D01*
X299472Y237879D01*
X299384Y237888D01*
X299296Y237901D01*
X299209Y237918D01*
X299123Y237938D01*
X299038Y237963D01*
X298953Y237990D01*
X298870Y238022D01*
X298789Y238056D01*
X298709Y238095D01*
X298631Y238136D01*
X298554Y238181D01*
X298480Y238229D01*
X298407Y238280D01*
X298337Y238334D01*
X298270Y238392D01*
X298204Y238452D01*
X298142Y238514D01*
X298082Y238580D01*
X298024Y238647D01*
X297970Y238717D01*
X297919Y238790D01*
X297871Y238864D01*
X297826Y238941D01*
X297785Y239019D01*
X297746Y239099D01*
X297712Y239180D01*
X297680Y239263D01*
X297653Y239348D01*
X297628Y239433D01*
X297608Y239519D01*
X297591Y239606D01*
X297578Y239694D01*
X297569Y239782D01*
X297563Y239870D01*
X297561Y239959D01*
X297561Y245181D01*
X297563Y245272D01*
X297569Y245363D01*
X297579Y245454D01*
X297593Y245544D01*
X297610Y245633D01*
X297632Y245721D01*
X297658Y245809D01*
X297687Y245895D01*
X297720Y245980D01*
X297757Y246063D01*
X297797Y246145D01*
X297841Y246225D01*
X297888Y246303D01*
X297939Y246379D01*
X297992Y246452D01*
X298049Y246523D01*
X298110Y246592D01*
X298173Y246657D01*
X298238Y246720D01*
X298307Y246780D01*
X298378Y246838D01*
X298451Y246891D01*
X298527Y246942D01*
X298605Y246989D01*
X298685Y247033D01*
X298767Y247073D01*
X298850Y247110D01*
X298935Y247143D01*
X299021Y247172D01*
X299109Y247198D01*
X299197Y247220D01*
X299286Y247237D01*
X299376Y247251D01*
X299467Y247261D01*
X299558Y247267D01*
X299649Y247269D01*
X301738Y247269D01*
X305512Y247269D02*
X305512Y237871D01*
X305512Y247269D02*
X308122Y247269D01*
X308222Y247267D01*
X308322Y247261D01*
X308421Y247252D01*
X308521Y247238D01*
X308619Y247221D01*
X308717Y247200D01*
X308814Y247176D01*
X308910Y247147D01*
X309005Y247115D01*
X309098Y247080D01*
X309190Y247041D01*
X309281Y246998D01*
X309369Y246952D01*
X309456Y246902D01*
X309541Y246850D01*
X309624Y246794D01*
X309705Y246735D01*
X309783Y246672D01*
X309859Y246607D01*
X309933Y246539D01*
X310003Y246469D01*
X310071Y246395D01*
X310136Y246319D01*
X310199Y246241D01*
X310258Y246160D01*
X310314Y246077D01*
X310366Y245992D01*
X310416Y245905D01*
X310462Y245817D01*
X310505Y245726D01*
X310544Y245634D01*
X310579Y245541D01*
X310611Y245446D01*
X310640Y245350D01*
X310664Y245253D01*
X310685Y245155D01*
X310702Y245057D01*
X310716Y244957D01*
X310725Y244858D01*
X310731Y244758D01*
X310733Y244658D01*
X310733Y240482D01*
X310731Y240382D01*
X310725Y240282D01*
X310716Y240183D01*
X310702Y240083D01*
X310685Y239985D01*
X310664Y239887D01*
X310640Y239790D01*
X310611Y239694D01*
X310579Y239599D01*
X310544Y239506D01*
X310505Y239414D01*
X310462Y239323D01*
X310416Y239235D01*
X310366Y239148D01*
X310314Y239063D01*
X310258Y238980D01*
X310199Y238899D01*
X310136Y238821D01*
X310071Y238745D01*
X310003Y238671D01*
X309933Y238601D01*
X309859Y238533D01*
X309783Y238468D01*
X309705Y238405D01*
X309624Y238346D01*
X309541Y238290D01*
X309456Y238238D01*
X309369Y238188D01*
X309281Y238142D01*
X309190Y238099D01*
X309098Y238060D01*
X309005Y238025D01*
X308910Y237993D01*
X308814Y237964D01*
X308717Y237940D01*
X308619Y237919D01*
X308521Y237902D01*
X308421Y237888D01*
X308322Y237879D01*
X308222Y237873D01*
X308122Y237871D01*
X305512Y237871D01*
X302782Y217692D02*
X301216Y217692D01*
X302782Y217692D02*
X302782Y212471D01*
X299649Y212471D01*
X299560Y212473D01*
X299472Y212479D01*
X299384Y212488D01*
X299296Y212501D01*
X299209Y212518D01*
X299123Y212538D01*
X299038Y212563D01*
X298953Y212590D01*
X298870Y212622D01*
X298789Y212656D01*
X298709Y212695D01*
X298631Y212736D01*
X298554Y212781D01*
X298480Y212829D01*
X298407Y212880D01*
X298337Y212934D01*
X298270Y212992D01*
X298204Y213052D01*
X298142Y213114D01*
X298082Y213180D01*
X298024Y213247D01*
X297970Y213317D01*
X297919Y213390D01*
X297871Y213464D01*
X297826Y213541D01*
X297785Y213619D01*
X297746Y213699D01*
X297712Y213780D01*
X297680Y213863D01*
X297653Y213948D01*
X297628Y214033D01*
X297608Y214119D01*
X297591Y214206D01*
X297578Y214294D01*
X297569Y214382D01*
X297563Y214470D01*
X297561Y214559D01*
X297561Y219781D01*
X297563Y219872D01*
X297569Y219963D01*
X297579Y220054D01*
X297593Y220144D01*
X297610Y220233D01*
X297632Y220321D01*
X297658Y220409D01*
X297687Y220495D01*
X297720Y220580D01*
X297757Y220663D01*
X297797Y220745D01*
X297841Y220825D01*
X297888Y220903D01*
X297939Y220979D01*
X297992Y221052D01*
X298049Y221123D01*
X298110Y221192D01*
X298173Y221257D01*
X298238Y221320D01*
X298307Y221380D01*
X298378Y221438D01*
X298451Y221491D01*
X298527Y221542D01*
X298605Y221589D01*
X298685Y221633D01*
X298767Y221673D01*
X298850Y221710D01*
X298935Y221743D01*
X299021Y221772D01*
X299109Y221798D01*
X299197Y221820D01*
X299286Y221837D01*
X299376Y221851D01*
X299467Y221861D01*
X299558Y221867D01*
X299649Y221869D01*
X302782Y221869D01*
X307315Y221869D02*
X307315Y212471D01*
X312536Y212471D02*
X307315Y221869D01*
X312536Y221869D02*
X312536Y212471D01*
X317068Y212471D02*
X317068Y221869D01*
X319679Y221869D01*
X319779Y221867D01*
X319879Y221861D01*
X319978Y221852D01*
X320078Y221838D01*
X320176Y221821D01*
X320274Y221800D01*
X320371Y221776D01*
X320467Y221747D01*
X320562Y221715D01*
X320655Y221680D01*
X320747Y221641D01*
X320838Y221598D01*
X320926Y221552D01*
X321013Y221502D01*
X321098Y221450D01*
X321181Y221394D01*
X321262Y221335D01*
X321340Y221272D01*
X321416Y221207D01*
X321490Y221139D01*
X321560Y221069D01*
X321628Y220995D01*
X321693Y220919D01*
X321756Y220841D01*
X321815Y220760D01*
X321871Y220677D01*
X321923Y220592D01*
X321973Y220505D01*
X322019Y220417D01*
X322062Y220326D01*
X322101Y220234D01*
X322136Y220141D01*
X322168Y220046D01*
X322197Y219950D01*
X322221Y219853D01*
X322242Y219755D01*
X322259Y219657D01*
X322273Y219557D01*
X322282Y219458D01*
X322288Y219358D01*
X322290Y219258D01*
X322289Y219258D02*
X322289Y215082D01*
X322290Y215082D02*
X322288Y214982D01*
X322282Y214882D01*
X322273Y214783D01*
X322259Y214683D01*
X322242Y214585D01*
X322221Y214487D01*
X322197Y214390D01*
X322168Y214294D01*
X322136Y214199D01*
X322101Y214106D01*
X322062Y214014D01*
X322019Y213923D01*
X321973Y213835D01*
X321923Y213748D01*
X321871Y213663D01*
X321815Y213580D01*
X321756Y213499D01*
X321693Y213421D01*
X321628Y213345D01*
X321560Y213271D01*
X321490Y213201D01*
X321416Y213133D01*
X321340Y213068D01*
X321262Y213005D01*
X321181Y212946D01*
X321098Y212890D01*
X321013Y212838D01*
X320926Y212788D01*
X320838Y212742D01*
X320747Y212699D01*
X320655Y212660D01*
X320562Y212625D01*
X320467Y212593D01*
X320371Y212564D01*
X320274Y212540D01*
X320176Y212519D01*
X320078Y212502D01*
X319978Y212488D01*
X319879Y212479D01*
X319779Y212473D01*
X319679Y212471D01*
X317068Y212471D01*
D16*
X48260Y596900D02*
X48265Y597272D01*
X48278Y597643D01*
X48301Y598014D01*
X48332Y598384D01*
X48373Y598753D01*
X48423Y599121D01*
X48481Y599488D01*
X48549Y599853D01*
X48625Y600217D01*
X48710Y600578D01*
X48805Y600937D01*
X48907Y601294D01*
X49019Y601649D01*
X49139Y602000D01*
X49267Y602349D01*
X49404Y602694D01*
X49550Y603036D01*
X49703Y603374D01*
X49865Y603708D01*
X50035Y604038D01*
X50213Y604364D01*
X50399Y604686D01*
X50593Y605003D01*
X50794Y605315D01*
X51003Y605622D01*
X51219Y605924D01*
X51443Y606221D01*
X51673Y606512D01*
X51911Y606797D01*
X52156Y607077D01*
X52407Y607350D01*
X52665Y607617D01*
X52929Y607878D01*
X53200Y608133D01*
X53477Y608380D01*
X53760Y608621D01*
X54048Y608855D01*
X54342Y609082D01*
X54642Y609301D01*
X48260Y596900D02*
X48265Y596528D01*
X48278Y596157D01*
X48301Y595785D01*
X48333Y595415D01*
X48373Y595045D01*
X48423Y594677D01*
X48482Y594309D01*
X48549Y593944D01*
X48626Y593580D01*
X48712Y593218D01*
X48806Y592858D01*
X48909Y592501D01*
X49020Y592146D01*
X49141Y591794D01*
X49270Y591445D01*
X49407Y591100D01*
X49553Y590758D01*
X49707Y590419D01*
X49869Y590084D01*
X50039Y589754D01*
X50218Y589428D01*
X50404Y589106D01*
X50598Y588788D01*
X50800Y588476D01*
X51009Y588169D01*
X51226Y587867D01*
X51450Y587570D01*
X51681Y587278D01*
X51919Y586993D01*
X52165Y586713D01*
X52417Y586440D01*
X52675Y586172D01*
X52940Y585912D01*
X53211Y585657D01*
X53489Y585409D01*
X53772Y585169D01*
X54061Y584935D01*
X54356Y584708D01*
X78740Y596900D02*
X78736Y597265D01*
X78723Y597630D01*
X78701Y597994D01*
X78670Y598357D01*
X78631Y598720D01*
X78583Y599082D01*
X78526Y599442D01*
X78461Y599801D01*
X78388Y600159D01*
X78305Y600514D01*
X78215Y600867D01*
X78115Y601219D01*
X78008Y601567D01*
X77892Y601913D01*
X77768Y602256D01*
X77635Y602596D01*
X77495Y602933D01*
X77347Y603266D01*
X77190Y603596D01*
X77026Y603922D01*
X76854Y604244D01*
X76674Y604561D01*
X76487Y604874D01*
X76293Y605183D01*
X76091Y605487D01*
X75881Y605786D01*
X75665Y606080D01*
X75442Y606368D01*
X75212Y606651D01*
X74975Y606929D01*
X74732Y607201D01*
X74482Y607467D01*
X74226Y607727D01*
X73963Y607980D01*
X73695Y608228D01*
X73421Y608468D01*
X73141Y608703D01*
X72856Y608930D01*
X78740Y596900D02*
X78736Y596535D01*
X78723Y596170D01*
X78701Y595806D01*
X78670Y595443D01*
X78631Y595080D01*
X78583Y594718D01*
X78526Y594358D01*
X78461Y593999D01*
X78388Y593641D01*
X78305Y593286D01*
X78215Y592933D01*
X78115Y592581D01*
X78008Y592233D01*
X77892Y591887D01*
X77768Y591544D01*
X77635Y591204D01*
X77495Y590867D01*
X77347Y590534D01*
X77190Y590204D01*
X77026Y589878D01*
X76854Y589556D01*
X76674Y589239D01*
X76487Y588926D01*
X76293Y588617D01*
X76091Y588313D01*
X75881Y588014D01*
X75665Y587720D01*
X75442Y587432D01*
X75212Y587149D01*
X74975Y586871D01*
X74732Y586599D01*
X74482Y586333D01*
X74226Y586073D01*
X73963Y585820D01*
X73695Y585572D01*
X73421Y585332D01*
X73141Y585097D01*
X72856Y584870D01*
D17*
X43180Y596900D02*
X43186Y597394D01*
X43204Y597888D01*
X43234Y598382D01*
X43276Y598875D01*
X43330Y599366D01*
X43396Y599856D01*
X43474Y600344D01*
X43564Y600831D01*
X43665Y601315D01*
X43779Y601796D01*
X43904Y602274D01*
X44040Y602750D01*
X44188Y603221D01*
X44348Y603689D01*
X44519Y604153D01*
X44701Y604613D01*
X44894Y605068D01*
X45098Y605519D01*
X45313Y605964D01*
X45539Y606404D01*
X45776Y606838D01*
X46023Y607266D01*
X46280Y607688D01*
X46548Y608104D01*
X46826Y608513D01*
X47113Y608915D01*
X47410Y609311D01*
X47717Y609698D01*
X48033Y610079D01*
X48358Y610451D01*
X48693Y610816D01*
X49036Y611172D01*
X49387Y611519D01*
X49747Y611859D01*
X50115Y612189D01*
X50491Y612510D01*
X43180Y596900D02*
X43186Y596412D01*
X43203Y595925D01*
X43233Y595438D01*
X43274Y594951D01*
X43326Y594466D01*
X43391Y593982D01*
X43467Y593500D01*
X43554Y593020D01*
X43653Y592542D01*
X43763Y592067D01*
X43885Y591594D01*
X44018Y591125D01*
X44163Y590658D01*
X44318Y590196D01*
X44485Y589737D01*
X44662Y589282D01*
X44851Y588832D01*
X45050Y588387D01*
X45260Y587946D01*
X45480Y587510D01*
X45711Y587080D01*
X45952Y586656D01*
X46203Y586238D01*
X46464Y585825D01*
X46735Y585419D01*
X47015Y585020D01*
X47305Y584627D01*
X47605Y584242D01*
X47914Y583864D01*
X48231Y583493D01*
X48558Y583131D01*
X48893Y582776D01*
X49236Y582429D01*
X49588Y582091D01*
X49947Y581761D01*
X50315Y581440D01*
X50690Y581127D01*
X51073Y580824D01*
X51462Y580530D01*
X51859Y580246D01*
X52262Y579971D01*
X52672Y579706D01*
X53088Y579451D01*
X53510Y579206D01*
X53938Y578971D01*
X83820Y596900D02*
X83814Y597390D01*
X83796Y597880D01*
X83767Y598369D01*
X83725Y598858D01*
X83672Y599345D01*
X83608Y599831D01*
X83531Y600315D01*
X83443Y600797D01*
X83343Y601277D01*
X83232Y601755D01*
X83109Y602229D01*
X82974Y602701D01*
X82829Y603169D01*
X82672Y603633D01*
X82504Y604094D01*
X82325Y604550D01*
X82135Y605002D01*
X81934Y605449D01*
X81722Y605891D01*
X81500Y606328D01*
X81268Y606760D01*
X81025Y607186D01*
X80771Y607605D01*
X80508Y608019D01*
X80235Y608426D01*
X79952Y608826D01*
X79659Y609220D01*
X79358Y609606D01*
X79046Y609985D01*
X78726Y610356D01*
X78397Y610719D01*
X78060Y611075D01*
X77713Y611422D01*
X77359Y611760D01*
X76996Y612090D01*
X76626Y612412D01*
X83820Y596900D02*
X83814Y596403D01*
X83796Y595906D01*
X83765Y595410D01*
X83723Y594915D01*
X83668Y594421D01*
X83602Y593928D01*
X83523Y593438D01*
X83432Y592949D01*
X83330Y592463D01*
X83215Y591979D01*
X83089Y591499D01*
X82951Y591021D01*
X82802Y590547D01*
X82641Y590077D01*
X82468Y589611D01*
X82284Y589149D01*
X82089Y588692D01*
X81883Y588240D01*
X81666Y587793D01*
X81437Y587352D01*
X81199Y586916D01*
X80949Y586486D01*
X80689Y586063D01*
X80419Y585645D01*
X80139Y585235D01*
X79849Y584832D01*
X79549Y584435D01*
X79239Y584047D01*
X78920Y583666D01*
X78592Y583293D01*
X78255Y582928D01*
X77909Y582571D01*
X77554Y582223D01*
X77191Y581884D01*
X76820Y581553D01*
X76440Y581232D01*
X76053Y580920D01*
X75659Y580618D01*
X75257Y580326D01*
X74848Y580043D01*
X74433Y579771D01*
X74010Y579508D01*
X73582Y579257D01*
X44450Y673100D02*
X44450Y800100D01*
X63500Y800100D01*
X107950Y800100D01*
X107950Y673100D01*
X63500Y673100D01*
X44450Y673100D01*
X63500Y673100D02*
X63500Y800100D01*
D18*
X158750Y733552D02*
X165100Y733552D01*
X171450Y733552D01*
D16*
X165100Y733552D02*
X165100Y721360D01*
D18*
X165100Y739902D02*
X158750Y739902D01*
X165100Y739902D02*
X171450Y739902D01*
D16*
X165100Y739902D02*
X165100Y751840D01*
X154940Y699770D02*
X175260Y699770D01*
X177800Y702310D02*
X177800Y770890D01*
X175260Y773430D02*
X154940Y773430D01*
X152400Y770890D02*
X152400Y702310D01*
X152400Y770890D02*
X152402Y770990D01*
X152408Y771089D01*
X152418Y771189D01*
X152431Y771287D01*
X152449Y771386D01*
X152470Y771483D01*
X152495Y771579D01*
X152524Y771675D01*
X152557Y771769D01*
X152593Y771862D01*
X152633Y771953D01*
X152677Y772043D01*
X152724Y772131D01*
X152774Y772217D01*
X152828Y772301D01*
X152885Y772383D01*
X152945Y772462D01*
X153009Y772540D01*
X153075Y772614D01*
X153144Y772686D01*
X153216Y772755D01*
X153290Y772821D01*
X153368Y772885D01*
X153447Y772945D01*
X153529Y773002D01*
X153613Y773056D01*
X153699Y773106D01*
X153787Y773153D01*
X153877Y773197D01*
X153968Y773237D01*
X154061Y773273D01*
X154155Y773306D01*
X154251Y773335D01*
X154347Y773360D01*
X154444Y773381D01*
X154543Y773399D01*
X154641Y773412D01*
X154741Y773422D01*
X154840Y773428D01*
X154940Y773430D01*
X175260Y773430D02*
X175360Y773428D01*
X175459Y773422D01*
X175559Y773412D01*
X175657Y773399D01*
X175756Y773381D01*
X175853Y773360D01*
X175949Y773335D01*
X176045Y773306D01*
X176139Y773273D01*
X176232Y773237D01*
X176323Y773197D01*
X176413Y773153D01*
X176501Y773106D01*
X176587Y773056D01*
X176671Y773002D01*
X176753Y772945D01*
X176832Y772885D01*
X176910Y772821D01*
X176984Y772755D01*
X177056Y772686D01*
X177125Y772614D01*
X177191Y772540D01*
X177255Y772462D01*
X177315Y772383D01*
X177372Y772301D01*
X177426Y772217D01*
X177476Y772131D01*
X177523Y772043D01*
X177567Y771953D01*
X177607Y771862D01*
X177643Y771769D01*
X177676Y771675D01*
X177705Y771579D01*
X177730Y771483D01*
X177751Y771386D01*
X177769Y771287D01*
X177782Y771189D01*
X177792Y771089D01*
X177798Y770990D01*
X177800Y770890D01*
X177800Y702310D02*
X177798Y702210D01*
X177792Y702111D01*
X177782Y702011D01*
X177769Y701913D01*
X177751Y701814D01*
X177730Y701717D01*
X177705Y701621D01*
X177676Y701525D01*
X177643Y701431D01*
X177607Y701338D01*
X177567Y701247D01*
X177523Y701157D01*
X177476Y701069D01*
X177426Y700983D01*
X177372Y700899D01*
X177315Y700817D01*
X177255Y700738D01*
X177191Y700660D01*
X177125Y700586D01*
X177056Y700514D01*
X176984Y700445D01*
X176910Y700379D01*
X176832Y700315D01*
X176753Y700255D01*
X176671Y700198D01*
X176587Y700144D01*
X176501Y700094D01*
X176413Y700047D01*
X176323Y700003D01*
X176232Y699963D01*
X176139Y699927D01*
X176045Y699894D01*
X175949Y699865D01*
X175853Y699840D01*
X175756Y699819D01*
X175657Y699801D01*
X175559Y699788D01*
X175459Y699778D01*
X175360Y699772D01*
X175260Y699770D01*
X154940Y699770D02*
X154840Y699772D01*
X154741Y699778D01*
X154641Y699788D01*
X154543Y699801D01*
X154444Y699819D01*
X154347Y699840D01*
X154251Y699865D01*
X154155Y699894D01*
X154061Y699927D01*
X153968Y699963D01*
X153877Y700003D01*
X153787Y700047D01*
X153699Y700094D01*
X153613Y700144D01*
X153529Y700198D01*
X153447Y700255D01*
X153368Y700315D01*
X153290Y700379D01*
X153216Y700445D01*
X153144Y700514D01*
X153075Y700586D01*
X153009Y700660D01*
X152945Y700738D01*
X152885Y700817D01*
X152828Y700899D01*
X152774Y700983D01*
X152724Y701069D01*
X152677Y701157D01*
X152633Y701247D01*
X152593Y701338D01*
X152557Y701431D01*
X152524Y701525D01*
X152495Y701621D01*
X152470Y701717D01*
X152449Y701814D01*
X152431Y701913D01*
X152418Y702011D01*
X152408Y702111D01*
X152402Y702210D01*
X152400Y702310D01*
X104140Y632460D02*
X104040Y632458D01*
X103941Y632452D01*
X103841Y632442D01*
X103743Y632429D01*
X103644Y632411D01*
X103547Y632390D01*
X103451Y632365D01*
X103355Y632336D01*
X103261Y632303D01*
X103168Y632267D01*
X103077Y632227D01*
X102987Y632183D01*
X102899Y632136D01*
X102813Y632086D01*
X102729Y632032D01*
X102647Y631975D01*
X102568Y631915D01*
X102490Y631851D01*
X102416Y631785D01*
X102344Y631716D01*
X102275Y631644D01*
X102209Y631570D01*
X102145Y631492D01*
X102085Y631413D01*
X102028Y631331D01*
X101974Y631247D01*
X101924Y631161D01*
X101877Y631073D01*
X101833Y630983D01*
X101793Y630892D01*
X101757Y630799D01*
X101724Y630705D01*
X101695Y630609D01*
X101670Y630513D01*
X101649Y630416D01*
X101631Y630317D01*
X101618Y630219D01*
X101608Y630119D01*
X101602Y630020D01*
X101600Y629920D01*
X101600Y614680D02*
X101602Y614580D01*
X101608Y614481D01*
X101618Y614381D01*
X101631Y614283D01*
X101649Y614184D01*
X101670Y614087D01*
X101695Y613991D01*
X101724Y613895D01*
X101757Y613801D01*
X101793Y613708D01*
X101833Y613617D01*
X101877Y613527D01*
X101924Y613439D01*
X101974Y613353D01*
X102028Y613269D01*
X102085Y613187D01*
X102145Y613108D01*
X102209Y613030D01*
X102275Y612956D01*
X102344Y612884D01*
X102416Y612815D01*
X102490Y612749D01*
X102568Y612685D01*
X102647Y612625D01*
X102729Y612568D01*
X102813Y612514D01*
X102899Y612464D01*
X102987Y612417D01*
X103077Y612373D01*
X103168Y612333D01*
X103261Y612297D01*
X103355Y612264D01*
X103451Y612235D01*
X103547Y612210D01*
X103644Y612189D01*
X103743Y612171D01*
X103841Y612158D01*
X103941Y612148D01*
X104040Y612142D01*
X104140Y612140D01*
X149860Y612140D02*
X149960Y612142D01*
X150059Y612148D01*
X150159Y612158D01*
X150257Y612171D01*
X150356Y612189D01*
X150453Y612210D01*
X150549Y612235D01*
X150645Y612264D01*
X150739Y612297D01*
X150832Y612333D01*
X150923Y612373D01*
X151013Y612417D01*
X151101Y612464D01*
X151187Y612514D01*
X151271Y612568D01*
X151353Y612625D01*
X151432Y612685D01*
X151510Y612749D01*
X151584Y612815D01*
X151656Y612884D01*
X151725Y612956D01*
X151791Y613030D01*
X151855Y613108D01*
X151915Y613187D01*
X151972Y613269D01*
X152026Y613353D01*
X152076Y613439D01*
X152123Y613527D01*
X152167Y613617D01*
X152207Y613708D01*
X152243Y613801D01*
X152276Y613895D01*
X152305Y613991D01*
X152330Y614087D01*
X152351Y614184D01*
X152369Y614283D01*
X152382Y614381D01*
X152392Y614481D01*
X152398Y614580D01*
X152400Y614680D01*
X152400Y629920D02*
X152398Y630020D01*
X152392Y630119D01*
X152382Y630219D01*
X152369Y630317D01*
X152351Y630416D01*
X152330Y630513D01*
X152305Y630609D01*
X152276Y630705D01*
X152243Y630799D01*
X152207Y630892D01*
X152167Y630983D01*
X152123Y631073D01*
X152076Y631161D01*
X152026Y631247D01*
X151972Y631331D01*
X151915Y631413D01*
X151855Y631492D01*
X151791Y631570D01*
X151725Y631644D01*
X151656Y631716D01*
X151584Y631785D01*
X151510Y631851D01*
X151432Y631915D01*
X151353Y631975D01*
X151271Y632032D01*
X151187Y632086D01*
X151101Y632136D01*
X151013Y632183D01*
X150923Y632227D01*
X150832Y632267D01*
X150739Y632303D01*
X150645Y632336D01*
X150549Y632365D01*
X150453Y632390D01*
X150356Y632411D01*
X150257Y632429D01*
X150159Y632442D01*
X150059Y632452D01*
X149960Y632458D01*
X149860Y632460D01*
X101600Y629920D02*
X101600Y614680D01*
X104140Y632460D02*
X107950Y632460D01*
X109220Y631190D01*
X107950Y612140D02*
X104140Y612140D01*
X107950Y612140D02*
X109220Y613410D01*
X144780Y631190D02*
X146050Y632460D01*
X144780Y631190D02*
X109220Y631190D01*
X144780Y613410D02*
X146050Y612140D01*
X144780Y613410D02*
X109220Y613410D01*
X146050Y632460D02*
X149860Y632460D01*
X149860Y612140D02*
X146050Y612140D01*
X152400Y614680D02*
X152400Y629920D01*
D10*
X102108Y635762D02*
X102108Y644652D01*
X104577Y644652D01*
X104675Y644650D01*
X104773Y644644D01*
X104871Y644634D01*
X104968Y644621D01*
X105065Y644603D01*
X105161Y644582D01*
X105255Y644557D01*
X105349Y644528D01*
X105442Y644496D01*
X105533Y644459D01*
X105623Y644420D01*
X105711Y644376D01*
X105797Y644329D01*
X105882Y644279D01*
X105964Y644226D01*
X106044Y644169D01*
X106122Y644109D01*
X106197Y644046D01*
X106270Y643980D01*
X106340Y643911D01*
X106407Y643840D01*
X106472Y643766D01*
X106533Y643689D01*
X106592Y643610D01*
X106647Y643529D01*
X106699Y643446D01*
X106747Y643360D01*
X106792Y643273D01*
X106834Y643184D01*
X106872Y643094D01*
X106906Y643002D01*
X106937Y642909D01*
X106964Y642814D01*
X106987Y642719D01*
X107007Y642622D01*
X107022Y642526D01*
X107034Y642428D01*
X107042Y642330D01*
X107046Y642232D01*
X107046Y642134D01*
X107042Y642036D01*
X107034Y641938D01*
X107022Y641840D01*
X107007Y641744D01*
X106987Y641647D01*
X106964Y641552D01*
X106937Y641457D01*
X106906Y641364D01*
X106872Y641272D01*
X106834Y641182D01*
X106792Y641093D01*
X106747Y641006D01*
X106699Y640920D01*
X106647Y640837D01*
X106592Y640756D01*
X106533Y640677D01*
X106472Y640600D01*
X106407Y640526D01*
X106340Y640455D01*
X106270Y640386D01*
X106197Y640320D01*
X106122Y640257D01*
X106044Y640197D01*
X105964Y640140D01*
X105882Y640087D01*
X105797Y640037D01*
X105711Y639990D01*
X105623Y639946D01*
X105533Y639907D01*
X105442Y639870D01*
X105349Y639838D01*
X105255Y639809D01*
X105161Y639784D01*
X105065Y639763D01*
X104968Y639745D01*
X104871Y639732D01*
X104773Y639722D01*
X104675Y639716D01*
X104577Y639714D01*
X104577Y639713D02*
X102108Y639713D01*
X105071Y639713D02*
X107047Y635762D01*
X110958Y642676D02*
X113427Y644652D01*
X113427Y635762D01*
X110958Y635762D02*
X115897Y635762D01*
D19*
X154305Y622300D03*
X99695Y622300D03*
D18*
X82550Y511048D02*
X76200Y511048D01*
X69850Y511048D01*
D16*
X76200Y511048D02*
X76200Y523240D01*
D18*
X76200Y504698D02*
X82550Y504698D01*
X76200Y504698D02*
X69850Y504698D01*
D16*
X76200Y504698D02*
X76200Y492760D01*
X86360Y544830D02*
X66040Y544830D01*
X63500Y542290D02*
X63500Y473710D01*
X66040Y471170D02*
X86360Y471170D01*
X88900Y473710D02*
X88900Y542290D01*
X88900Y473710D02*
X88898Y473610D01*
X88892Y473511D01*
X88882Y473411D01*
X88869Y473313D01*
X88851Y473214D01*
X88830Y473117D01*
X88805Y473021D01*
X88776Y472925D01*
X88743Y472831D01*
X88707Y472738D01*
X88667Y472647D01*
X88623Y472557D01*
X88576Y472469D01*
X88526Y472383D01*
X88472Y472299D01*
X88415Y472217D01*
X88355Y472138D01*
X88291Y472060D01*
X88225Y471986D01*
X88156Y471914D01*
X88084Y471845D01*
X88010Y471779D01*
X87932Y471715D01*
X87853Y471655D01*
X87771Y471598D01*
X87687Y471544D01*
X87601Y471494D01*
X87513Y471447D01*
X87423Y471403D01*
X87332Y471363D01*
X87239Y471327D01*
X87145Y471294D01*
X87049Y471265D01*
X86953Y471240D01*
X86856Y471219D01*
X86757Y471201D01*
X86659Y471188D01*
X86559Y471178D01*
X86460Y471172D01*
X86360Y471170D01*
X66040Y471170D02*
X65940Y471172D01*
X65841Y471178D01*
X65741Y471188D01*
X65643Y471201D01*
X65544Y471219D01*
X65447Y471240D01*
X65351Y471265D01*
X65255Y471294D01*
X65161Y471327D01*
X65068Y471363D01*
X64977Y471403D01*
X64887Y471447D01*
X64799Y471494D01*
X64713Y471544D01*
X64629Y471598D01*
X64547Y471655D01*
X64468Y471715D01*
X64390Y471779D01*
X64316Y471845D01*
X64244Y471914D01*
X64175Y471986D01*
X64109Y472060D01*
X64045Y472138D01*
X63985Y472217D01*
X63928Y472299D01*
X63874Y472383D01*
X63824Y472469D01*
X63777Y472557D01*
X63733Y472647D01*
X63693Y472738D01*
X63657Y472831D01*
X63624Y472925D01*
X63595Y473021D01*
X63570Y473117D01*
X63549Y473214D01*
X63531Y473313D01*
X63518Y473411D01*
X63508Y473511D01*
X63502Y473610D01*
X63500Y473710D01*
X63500Y542290D02*
X63502Y542390D01*
X63508Y542489D01*
X63518Y542589D01*
X63531Y542687D01*
X63549Y542786D01*
X63570Y542883D01*
X63595Y542979D01*
X63624Y543075D01*
X63657Y543169D01*
X63693Y543262D01*
X63733Y543353D01*
X63777Y543443D01*
X63824Y543531D01*
X63874Y543617D01*
X63928Y543701D01*
X63985Y543783D01*
X64045Y543862D01*
X64109Y543940D01*
X64175Y544014D01*
X64244Y544086D01*
X64316Y544155D01*
X64390Y544221D01*
X64468Y544285D01*
X64547Y544345D01*
X64629Y544402D01*
X64713Y544456D01*
X64799Y544506D01*
X64887Y544553D01*
X64977Y544597D01*
X65068Y544637D01*
X65161Y544673D01*
X65255Y544706D01*
X65351Y544735D01*
X65447Y544760D01*
X65544Y544781D01*
X65643Y544799D01*
X65741Y544812D01*
X65841Y544822D01*
X65940Y544828D01*
X66040Y544830D01*
X86360Y544830D02*
X86460Y544828D01*
X86559Y544822D01*
X86659Y544812D01*
X86757Y544799D01*
X86856Y544781D01*
X86953Y544760D01*
X87049Y544735D01*
X87145Y544706D01*
X87239Y544673D01*
X87332Y544637D01*
X87423Y544597D01*
X87513Y544553D01*
X87601Y544506D01*
X87687Y544456D01*
X87771Y544402D01*
X87853Y544345D01*
X87932Y544285D01*
X88010Y544221D01*
X88084Y544155D01*
X88156Y544086D01*
X88225Y544014D01*
X88291Y543940D01*
X88355Y543862D01*
X88415Y543783D01*
X88472Y543701D01*
X88526Y543617D01*
X88576Y543531D01*
X88623Y543443D01*
X88667Y543353D01*
X88707Y543262D01*
X88743Y543169D01*
X88776Y543075D01*
X88805Y542979D01*
X88830Y542883D01*
X88851Y542786D01*
X88869Y542687D01*
X88882Y542589D01*
X88892Y542489D01*
X88898Y542390D01*
X88900Y542290D01*
X162560Y650240D02*
X162660Y650242D01*
X162759Y650248D01*
X162859Y650258D01*
X162957Y650271D01*
X163056Y650289D01*
X163153Y650310D01*
X163249Y650335D01*
X163345Y650364D01*
X163439Y650397D01*
X163532Y650433D01*
X163623Y650473D01*
X163713Y650517D01*
X163801Y650564D01*
X163887Y650614D01*
X163971Y650668D01*
X164053Y650725D01*
X164132Y650785D01*
X164210Y650849D01*
X164284Y650915D01*
X164356Y650984D01*
X164425Y651056D01*
X164491Y651130D01*
X164555Y651208D01*
X164615Y651287D01*
X164672Y651369D01*
X164726Y651453D01*
X164776Y651539D01*
X164823Y651627D01*
X164867Y651717D01*
X164907Y651808D01*
X164943Y651901D01*
X164976Y651995D01*
X165005Y652091D01*
X165030Y652187D01*
X165051Y652284D01*
X165069Y652383D01*
X165082Y652481D01*
X165092Y652581D01*
X165098Y652680D01*
X165100Y652780D01*
X165100Y668020D02*
X165098Y668120D01*
X165092Y668219D01*
X165082Y668319D01*
X165069Y668417D01*
X165051Y668516D01*
X165030Y668613D01*
X165005Y668709D01*
X164976Y668805D01*
X164943Y668899D01*
X164907Y668992D01*
X164867Y669083D01*
X164823Y669173D01*
X164776Y669261D01*
X164726Y669347D01*
X164672Y669431D01*
X164615Y669513D01*
X164555Y669592D01*
X164491Y669670D01*
X164425Y669744D01*
X164356Y669816D01*
X164284Y669885D01*
X164210Y669951D01*
X164132Y670015D01*
X164053Y670075D01*
X163971Y670132D01*
X163887Y670186D01*
X163801Y670236D01*
X163713Y670283D01*
X163623Y670327D01*
X163532Y670367D01*
X163439Y670403D01*
X163345Y670436D01*
X163249Y670465D01*
X163153Y670490D01*
X163056Y670511D01*
X162957Y670529D01*
X162859Y670542D01*
X162759Y670552D01*
X162660Y670558D01*
X162560Y670560D01*
X116840Y670560D02*
X116740Y670558D01*
X116641Y670552D01*
X116541Y670542D01*
X116443Y670529D01*
X116344Y670511D01*
X116247Y670490D01*
X116151Y670465D01*
X116055Y670436D01*
X115961Y670403D01*
X115868Y670367D01*
X115777Y670327D01*
X115687Y670283D01*
X115599Y670236D01*
X115513Y670186D01*
X115429Y670132D01*
X115347Y670075D01*
X115268Y670015D01*
X115190Y669951D01*
X115116Y669885D01*
X115044Y669816D01*
X114975Y669744D01*
X114909Y669670D01*
X114845Y669592D01*
X114785Y669513D01*
X114728Y669431D01*
X114674Y669347D01*
X114624Y669261D01*
X114577Y669173D01*
X114533Y669083D01*
X114493Y668992D01*
X114457Y668899D01*
X114424Y668805D01*
X114395Y668709D01*
X114370Y668613D01*
X114349Y668516D01*
X114331Y668417D01*
X114318Y668319D01*
X114308Y668219D01*
X114302Y668120D01*
X114300Y668020D01*
X114300Y652780D02*
X114302Y652680D01*
X114308Y652581D01*
X114318Y652481D01*
X114331Y652383D01*
X114349Y652284D01*
X114370Y652187D01*
X114395Y652091D01*
X114424Y651995D01*
X114457Y651901D01*
X114493Y651808D01*
X114533Y651717D01*
X114577Y651627D01*
X114624Y651539D01*
X114674Y651453D01*
X114728Y651369D01*
X114785Y651287D01*
X114845Y651208D01*
X114909Y651130D01*
X114975Y651056D01*
X115044Y650984D01*
X115116Y650915D01*
X115190Y650849D01*
X115268Y650785D01*
X115347Y650725D01*
X115429Y650668D01*
X115513Y650614D01*
X115599Y650564D01*
X115687Y650517D01*
X115777Y650473D01*
X115868Y650433D01*
X115961Y650397D01*
X116055Y650364D01*
X116151Y650335D01*
X116247Y650310D01*
X116344Y650289D01*
X116443Y650271D01*
X116541Y650258D01*
X116641Y650248D01*
X116740Y650242D01*
X116840Y650240D01*
X165100Y652780D02*
X165100Y668020D01*
X162560Y650240D02*
X158750Y650240D01*
X157480Y651510D01*
X158750Y670560D02*
X162560Y670560D01*
X158750Y670560D02*
X157480Y669290D01*
X121920Y651510D02*
X120650Y650240D01*
X121920Y651510D02*
X157480Y651510D01*
X121920Y669290D02*
X120650Y670560D01*
X121920Y669290D02*
X157480Y669290D01*
X120650Y650240D02*
X116840Y650240D01*
X116840Y670560D02*
X120650Y670560D01*
X114300Y668020D02*
X114300Y652780D01*
D10*
X150803Y646938D02*
X150803Y638048D01*
X150803Y646938D02*
X153273Y646938D01*
X153371Y646936D01*
X153469Y646930D01*
X153567Y646920D01*
X153664Y646907D01*
X153761Y646889D01*
X153857Y646868D01*
X153951Y646843D01*
X154045Y646814D01*
X154138Y646782D01*
X154229Y646745D01*
X154319Y646706D01*
X154407Y646662D01*
X154493Y646615D01*
X154578Y646565D01*
X154660Y646512D01*
X154740Y646455D01*
X154818Y646395D01*
X154893Y646332D01*
X154966Y646266D01*
X155036Y646197D01*
X155103Y646126D01*
X155168Y646052D01*
X155229Y645975D01*
X155288Y645896D01*
X155343Y645815D01*
X155395Y645732D01*
X155443Y645646D01*
X155488Y645559D01*
X155530Y645470D01*
X155568Y645380D01*
X155602Y645288D01*
X155633Y645195D01*
X155660Y645100D01*
X155683Y645005D01*
X155703Y644908D01*
X155718Y644812D01*
X155730Y644714D01*
X155738Y644616D01*
X155742Y644518D01*
X155742Y644420D01*
X155738Y644322D01*
X155730Y644224D01*
X155718Y644126D01*
X155703Y644030D01*
X155683Y643933D01*
X155660Y643838D01*
X155633Y643743D01*
X155602Y643650D01*
X155568Y643558D01*
X155530Y643468D01*
X155488Y643379D01*
X155443Y643292D01*
X155395Y643206D01*
X155343Y643123D01*
X155288Y643042D01*
X155229Y642963D01*
X155168Y642886D01*
X155103Y642812D01*
X155036Y642741D01*
X154966Y642672D01*
X154893Y642606D01*
X154818Y642543D01*
X154740Y642483D01*
X154660Y642426D01*
X154578Y642373D01*
X154493Y642323D01*
X154407Y642276D01*
X154319Y642232D01*
X154229Y642193D01*
X154138Y642156D01*
X154045Y642124D01*
X153951Y642095D01*
X153857Y642070D01*
X153761Y642049D01*
X153664Y642031D01*
X153567Y642018D01*
X153469Y642008D01*
X153371Y642002D01*
X153273Y642000D01*
X153273Y641999D02*
X150803Y641999D01*
X153767Y641999D02*
X155742Y638048D01*
X164593Y644716D02*
X164591Y644808D01*
X164585Y644900D01*
X164576Y644991D01*
X164563Y645082D01*
X164546Y645172D01*
X164525Y645262D01*
X164501Y645350D01*
X164473Y645438D01*
X164441Y645524D01*
X164406Y645609D01*
X164367Y645692D01*
X164325Y645774D01*
X164280Y645854D01*
X164231Y645932D01*
X164179Y646008D01*
X164124Y646081D01*
X164066Y646153D01*
X164006Y646222D01*
X163942Y646288D01*
X163876Y646352D01*
X163807Y646412D01*
X163735Y646470D01*
X163662Y646525D01*
X163586Y646577D01*
X163508Y646626D01*
X163428Y646671D01*
X163346Y646713D01*
X163263Y646752D01*
X163178Y646787D01*
X163092Y646819D01*
X163004Y646847D01*
X162916Y646871D01*
X162826Y646892D01*
X162736Y646909D01*
X162645Y646922D01*
X162554Y646931D01*
X162462Y646937D01*
X162370Y646939D01*
X162370Y646938D02*
X162264Y646936D01*
X162159Y646930D01*
X162054Y646920D01*
X161949Y646907D01*
X161845Y646889D01*
X161742Y646868D01*
X161639Y646843D01*
X161537Y646814D01*
X161437Y646781D01*
X161338Y646745D01*
X161240Y646705D01*
X161144Y646661D01*
X161049Y646614D01*
X160957Y646564D01*
X160866Y646510D01*
X160777Y646452D01*
X160691Y646392D01*
X160607Y646328D01*
X160525Y646262D01*
X160445Y646192D01*
X160369Y646119D01*
X160295Y646044D01*
X160224Y645966D01*
X160156Y645885D01*
X160090Y645802D01*
X160028Y645716D01*
X159970Y645629D01*
X159914Y645539D01*
X159862Y645447D01*
X159813Y645353D01*
X159768Y645258D01*
X159726Y645161D01*
X159688Y645062D01*
X159654Y644963D01*
X163851Y642987D02*
X163920Y643056D01*
X163986Y643126D01*
X164049Y643200D01*
X164108Y643276D01*
X164165Y643354D01*
X164219Y643434D01*
X164269Y643517D01*
X164316Y643601D01*
X164359Y643688D01*
X164399Y643776D01*
X164435Y643865D01*
X164468Y643956D01*
X164497Y644048D01*
X164522Y644142D01*
X164543Y644236D01*
X164561Y644331D01*
X164574Y644427D01*
X164584Y644523D01*
X164590Y644619D01*
X164592Y644716D01*
X163851Y642987D02*
X159653Y638048D01*
X164592Y638048D01*
D19*
X112395Y660400D03*
X167005Y660400D03*
D18*
X228600Y320548D02*
X234950Y320548D01*
X228600Y320548D02*
X222250Y320548D01*
D16*
X228600Y320548D02*
X228600Y332740D01*
D18*
X228600Y314198D02*
X234950Y314198D01*
X228600Y314198D02*
X222250Y314198D01*
D16*
X228600Y314198D02*
X228600Y302260D01*
X238760Y354330D02*
X218440Y354330D01*
X215900Y351790D02*
X215900Y283210D01*
X218440Y280670D02*
X238760Y280670D01*
X241300Y283210D02*
X241300Y351790D01*
X241300Y283210D02*
X241298Y283110D01*
X241292Y283011D01*
X241282Y282911D01*
X241269Y282813D01*
X241251Y282714D01*
X241230Y282617D01*
X241205Y282521D01*
X241176Y282425D01*
X241143Y282331D01*
X241107Y282238D01*
X241067Y282147D01*
X241023Y282057D01*
X240976Y281969D01*
X240926Y281883D01*
X240872Y281799D01*
X240815Y281717D01*
X240755Y281638D01*
X240691Y281560D01*
X240625Y281486D01*
X240556Y281414D01*
X240484Y281345D01*
X240410Y281279D01*
X240332Y281215D01*
X240253Y281155D01*
X240171Y281098D01*
X240087Y281044D01*
X240001Y280994D01*
X239913Y280947D01*
X239823Y280903D01*
X239732Y280863D01*
X239639Y280827D01*
X239545Y280794D01*
X239449Y280765D01*
X239353Y280740D01*
X239256Y280719D01*
X239157Y280701D01*
X239059Y280688D01*
X238959Y280678D01*
X238860Y280672D01*
X238760Y280670D01*
X218440Y280670D02*
X218340Y280672D01*
X218241Y280678D01*
X218141Y280688D01*
X218043Y280701D01*
X217944Y280719D01*
X217847Y280740D01*
X217751Y280765D01*
X217655Y280794D01*
X217561Y280827D01*
X217468Y280863D01*
X217377Y280903D01*
X217287Y280947D01*
X217199Y280994D01*
X217113Y281044D01*
X217029Y281098D01*
X216947Y281155D01*
X216868Y281215D01*
X216790Y281279D01*
X216716Y281345D01*
X216644Y281414D01*
X216575Y281486D01*
X216509Y281560D01*
X216445Y281638D01*
X216385Y281717D01*
X216328Y281799D01*
X216274Y281883D01*
X216224Y281969D01*
X216177Y282057D01*
X216133Y282147D01*
X216093Y282238D01*
X216057Y282331D01*
X216024Y282425D01*
X215995Y282521D01*
X215970Y282617D01*
X215949Y282714D01*
X215931Y282813D01*
X215918Y282911D01*
X215908Y283011D01*
X215902Y283110D01*
X215900Y283210D01*
X215900Y351790D02*
X215902Y351890D01*
X215908Y351989D01*
X215918Y352089D01*
X215931Y352187D01*
X215949Y352286D01*
X215970Y352383D01*
X215995Y352479D01*
X216024Y352575D01*
X216057Y352669D01*
X216093Y352762D01*
X216133Y352853D01*
X216177Y352943D01*
X216224Y353031D01*
X216274Y353117D01*
X216328Y353201D01*
X216385Y353283D01*
X216445Y353362D01*
X216509Y353440D01*
X216575Y353514D01*
X216644Y353586D01*
X216716Y353655D01*
X216790Y353721D01*
X216868Y353785D01*
X216947Y353845D01*
X217029Y353902D01*
X217113Y353956D01*
X217199Y354006D01*
X217287Y354053D01*
X217377Y354097D01*
X217468Y354137D01*
X217561Y354173D01*
X217655Y354206D01*
X217751Y354235D01*
X217847Y354260D01*
X217944Y354281D01*
X218043Y354299D01*
X218141Y354312D01*
X218241Y354322D01*
X218340Y354328D01*
X218440Y354330D01*
X238760Y354330D02*
X238860Y354328D01*
X238959Y354322D01*
X239059Y354312D01*
X239157Y354299D01*
X239256Y354281D01*
X239353Y354260D01*
X239449Y354235D01*
X239545Y354206D01*
X239639Y354173D01*
X239732Y354137D01*
X239823Y354097D01*
X239913Y354053D01*
X240001Y354006D01*
X240087Y353956D01*
X240171Y353902D01*
X240253Y353845D01*
X240332Y353785D01*
X240410Y353721D01*
X240484Y353655D01*
X240556Y353586D01*
X240625Y353514D01*
X240691Y353440D01*
X240755Y353362D01*
X240815Y353283D01*
X240872Y353201D01*
X240926Y353117D01*
X240976Y353031D01*
X241023Y352943D01*
X241067Y352853D01*
X241107Y352762D01*
X241143Y352669D01*
X241176Y352575D01*
X241205Y352479D01*
X241230Y352383D01*
X241251Y352286D01*
X241269Y352187D01*
X241282Y352089D01*
X241292Y351989D01*
X241298Y351890D01*
X241300Y351790D01*
M02*
