G04 EAGLE Gerber X2 export*
%TF.Part,Single*%
%TF.FileFunction,Soldermask,Top,1*%
%TF.FilePolarity,Negative*%
%TF.GenerationSoftware,Autodesk,EAGLE,8.7.1*%
%TF.CreationDate,2021-04-04T20:08:03Z*%
G75*
%MOMM*%
%FSLAX34Y34*%
%LPD*%
%AMOC8*
5,1,8,0,0,1.08239X$1,22.5*%
G01*
%ADD10C,1.311200*%
%ADD11C,2.082800*%
%ADD12R,1.727200X6.680200*%
%ADD13C,1.003200*%
%ADD14P,1.649562X8X112.500000*%
%ADD15C,1.711200*%
%ADD16P,1.649562X8X22.500000*%
%ADD17P,1.649562X8X292.500000*%
%ADD18P,1.649562X8X202.500000*%
%ADD19C,0.959600*%
%ADD20C,1.109600*%


D10*
X204613Y629039D02*
X204594Y640119D01*
X229994Y640163D02*
X230013Y629083D01*
X255413Y629128D02*
X255394Y640208D01*
X280794Y640252D02*
X280813Y629172D01*
X306213Y629216D02*
X306194Y640296D01*
X331594Y640341D02*
X331613Y629261D01*
X357013Y629305D02*
X356993Y640385D01*
X382393Y640429D02*
X382413Y629349D01*
X407813Y629394D02*
X407793Y640474D01*
X433193Y640518D02*
X433213Y629438D01*
X458613Y629482D02*
X458593Y640562D01*
X483993Y640607D02*
X484013Y629527D01*
X509413Y629571D02*
X509393Y640651D01*
X534793Y640695D02*
X534813Y629615D01*
X560212Y629660D02*
X560193Y640740D01*
X585593Y640784D02*
X585612Y629704D01*
X611012Y629748D02*
X610993Y640828D01*
X636393Y640873D02*
X636412Y629793D01*
X661812Y629837D02*
X661793Y640917D01*
X687193Y640961D02*
X687212Y629881D01*
X686946Y782281D02*
X686927Y793361D01*
X661527Y793317D02*
X661546Y782237D01*
X636146Y782192D02*
X636127Y793272D01*
X610727Y793228D02*
X610746Y782148D01*
X585346Y782104D02*
X585327Y793184D01*
X559927Y793139D02*
X559946Y782059D01*
X534547Y782015D02*
X534527Y793095D01*
X509127Y793051D02*
X509147Y781971D01*
X483747Y781926D02*
X483727Y793006D01*
X458327Y792962D02*
X458347Y781882D01*
X432947Y781838D02*
X432927Y792918D01*
X407527Y792873D02*
X407547Y781793D01*
X382147Y781749D02*
X382127Y792829D01*
X356727Y792785D02*
X356747Y781705D01*
X331347Y781660D02*
X331328Y792740D01*
X305928Y792696D02*
X305947Y781616D01*
X280547Y781572D02*
X280528Y792652D01*
X255128Y792607D02*
X255147Y781527D01*
X229747Y781483D02*
X229728Y792563D01*
X204328Y792519D02*
X204347Y781439D01*
X114300Y437340D02*
X114300Y426260D01*
X139700Y426260D02*
X139700Y437340D01*
X165100Y437340D02*
X165100Y426260D01*
X190500Y426260D02*
X190500Y437340D01*
X215900Y437340D02*
X215900Y426260D01*
X241300Y426260D02*
X241300Y437340D01*
X266700Y437340D02*
X266700Y426260D01*
X292100Y426260D02*
X292100Y437340D01*
X317500Y437340D02*
X317500Y426260D01*
X342900Y426260D02*
X342900Y437340D01*
X368300Y437340D02*
X368300Y426260D01*
X393700Y426260D02*
X393700Y437340D01*
X419100Y437340D02*
X419100Y426260D01*
X444500Y426260D02*
X444500Y437340D01*
X469900Y437340D02*
X469900Y426260D01*
X495300Y426260D02*
X495300Y437340D01*
X520700Y437340D02*
X520700Y426260D01*
X546100Y426260D02*
X546100Y437340D01*
X571500Y437340D02*
X571500Y426260D01*
X596900Y426260D02*
X596900Y437340D01*
X622300Y437340D02*
X622300Y426260D01*
X647700Y426260D02*
X647700Y437340D01*
X673100Y437340D02*
X673100Y426260D01*
X698500Y426260D02*
X698500Y437340D01*
X698500Y578660D02*
X698500Y589740D01*
X673100Y589740D02*
X673100Y578660D01*
X647700Y578660D02*
X647700Y589740D01*
X622300Y589740D02*
X622300Y578660D01*
X596900Y578660D02*
X596900Y589740D01*
X571500Y589740D02*
X571500Y578660D01*
X546100Y578660D02*
X546100Y589740D01*
X520700Y589740D02*
X520700Y578660D01*
X495300Y578660D02*
X495300Y589740D01*
X469900Y589740D02*
X469900Y578660D01*
X444500Y578660D02*
X444500Y589740D01*
X419100Y589740D02*
X419100Y578660D01*
X393700Y578660D02*
X393700Y589740D01*
X368300Y589740D02*
X368300Y578660D01*
X342900Y578660D02*
X342900Y589740D01*
X317500Y589740D02*
X317500Y578660D01*
X292100Y578660D02*
X292100Y589740D01*
X266700Y589740D02*
X266700Y578660D01*
X241300Y578660D02*
X241300Y589740D01*
X215900Y589740D02*
X215900Y578660D01*
X190500Y578660D02*
X190500Y589740D01*
X165100Y589740D02*
X165100Y578660D01*
X139700Y578660D02*
X139700Y589740D01*
X114300Y589740D02*
X114300Y578660D01*
D11*
X279400Y368300D03*
X279400Y342900D03*
X279400Y317500D03*
X279400Y292100D03*
X279400Y266700D03*
X279400Y241300D03*
X279400Y215900D03*
D12*
X228600Y38100D03*
X254000Y38100D03*
X279400Y38100D03*
X304800Y38100D03*
X330200Y38100D03*
X355600Y38100D03*
X381000Y38100D03*
X406400Y38100D03*
X431800Y38100D03*
X457200Y38100D03*
X482600Y38100D03*
X508000Y38100D03*
D13*
X561975Y390525D03*
X561975Y352425D03*
X174625Y390525D03*
X174625Y352425D03*
D14*
X63500Y584200D03*
X63500Y609600D03*
D15*
X68660Y685800D02*
X83740Y685800D01*
X83740Y711200D02*
X68660Y711200D01*
X68660Y736600D02*
X83740Y736600D01*
X83740Y762000D02*
X68660Y762000D01*
X68660Y787400D02*
X83740Y787400D01*
D14*
X165100Y711200D03*
X165100Y762000D03*
D16*
X88900Y622300D03*
X165100Y622300D03*
D17*
X76200Y533400D03*
X76200Y482600D03*
D18*
X177800Y660400D03*
X101600Y660400D03*
D17*
X228600Y342900D03*
X228600Y292100D03*
D19*
X228600Y119063D03*
X465138Y119063D03*
X525463Y658813D03*
X525463Y549275D03*
X547688Y517525D03*
X636588Y484188D03*
X395288Y519113D03*
X420688Y471488D03*
X473075Y673100D03*
X374650Y495300D03*
X374650Y511175D03*
X374650Y547688D03*
X341948Y550228D03*
X407988Y501650D03*
X412750Y542925D03*
X447675Y530225D03*
X436563Y200025D03*
X471488Y184150D03*
X430213Y557213D03*
X444500Y111125D03*
X490538Y133350D03*
X247650Y303848D03*
X392113Y279400D03*
X392113Y125413D03*
X487363Y227013D03*
X374650Y171450D03*
X356235Y121920D03*
X246063Y666750D03*
X454025Y517525D03*
X455613Y139700D03*
X492125Y146050D03*
X361950Y476250D03*
X298450Y133350D03*
X509588Y496888D03*
X509588Y350838D03*
X623888Y501650D03*
X254000Y468313D03*
X268288Y384175D03*
X304800Y155575D03*
X401638Y114300D03*
D20*
X533400Y812800D03*
X660400Y812800D03*
M02*
