%
M48
M72
T01C0.01378
T02C0.01969
T03C0.02362
T04C0.03150
T05C0.03200
T06C0.03937
T07C0.04000
%
T01
X88500Y69875
X116000Y75500
X118500Y84250
X138750Y71000
X152875Y72375
X156625Y68000
X173500Y66750
X181625Y69875
X177875Y78000
X191625Y75500
X192250Y80500
X184125Y95500
X170375Y101750
X190375Y112375
X152875Y133000
X146000Y90500
X96000Y142625
X104125Y174250
X98500Y207375
X133125Y239625
X146000Y238625
X154125Y227375
X159125Y220500
X164125Y208625
X177250Y226750
X174750Y231750
X167875Y242375
X161000Y236750
X146000Y224250
X146000Y218000
X141000Y210500
X199125Y218625
X214125Y226750
X205375Y239250
X205375Y282375
X184750Y288000
X244125Y220500
X249125Y213625
X199125Y161125
X95375Y285500
T02
X208500Y343000
X258500Y343000
T03
X258948Y333148
X268947Y333166
X248948Y333131
X238948Y333113
X228948Y333096
X218948Y333078
X208948Y333061
X198948Y333044
X188948Y333026
X178948Y333009
X168948Y332991
X158948Y332974
X148948Y332956
X138948Y332939
X128948Y332921
X118948Y332904
X108948Y332887
X98948Y332869
X88948Y332852
X78948Y332834
X79052Y272834
X89052Y272852
X99052Y272869
X109052Y272887
X119052Y272904
X129052Y272922
X139052Y272939
X149052Y272956
X159052Y272974
X169052Y272991
X179052Y273009
X189052Y273026
X199052Y273044
X209052Y273061
X219052Y273079
X229052Y273096
X239052Y273113
X249052Y273131
X259052Y273148
X269052Y273166
X273500Y253000
X263500Y253000
X253500Y253000
X243500Y253000
X233500Y253000
X223500Y253000
X213500Y253000
X203500Y253000
X193500Y253000
X183500Y253000
X173500Y253000
X163500Y253000
X153500Y253000
X143500Y253000
X133500Y253000
X123500Y253000
X113500Y253000
X103500Y253000
X93500Y253000
X83500Y253000
X73500Y253000
X63500Y253000
X53500Y253000
X43500Y253000
X43500Y193000
X53500Y193000
X63500Y193000
X73500Y193000
X83500Y193000
X93500Y193000
X103500Y193000
X113500Y193000
X123500Y193000
X133500Y193000
X143500Y193000
X153500Y193000
X163500Y193000
X173500Y193000
X183500Y193000
X193500Y193000
X203500Y193000
X213500Y193000
X223500Y193000
X233500Y193000
X243500Y193000
X253500Y193000
X263500Y193000
X273500Y193000
T04
X219750Y176750
X219750Y161750
X67250Y161750
X67250Y176750
T05
X88500Y158000
X88500Y138000
X28500Y213000
X28500Y233000
X23500Y253000
X23500Y263000
X33500Y268000
X38500Y283000
X63500Y268000
X68500Y283000
X63500Y303000
X63500Y323000
T06
X28500Y323000
X28500Y313000
X28500Y303000
X28500Y293000
X28500Y333000
T07
X108500Y168000
X108500Y158000
X108500Y148000
X108500Y138000
X108500Y128000
X108500Y118000
X108500Y108000
M30
