G75*
%MOIN*%
%OFA0B0*%
%FSLAX25Y25*%
%IPPOS*%
%LPD*%
%AMOC8*
5,1,8,0,0,1.08239X$1,22.5*
%
%ADD10C,0.05162*%
%ADD11C,0.08200*%
%ADD12R,0.06800X0.26300*%
%ADD13C,0.03950*%
%ADD14OC8,0.06000*%
%ADD15C,0.06737*%
%ADD16C,0.03778*%
%ADD17C,0.04369*%
D10*
X0043500Y0190819D02*
X0043500Y0195181D01*
X0053500Y0195181D02*
X0053500Y0190819D01*
X0063500Y0190819D02*
X0063500Y0195181D01*
X0073500Y0195181D02*
X0073500Y0190819D01*
X0083500Y0190819D02*
X0083500Y0195181D01*
X0093500Y0195181D02*
X0093500Y0190819D01*
X0103500Y0190819D02*
X0103500Y0195181D01*
X0113500Y0195181D02*
X0113500Y0190819D01*
X0123500Y0190819D02*
X0123500Y0195181D01*
X0133500Y0195181D02*
X0133500Y0190819D01*
X0143500Y0190819D02*
X0143500Y0195181D01*
X0153500Y0195181D02*
X0153500Y0190819D01*
X0163500Y0190819D02*
X0163500Y0195181D01*
X0173500Y0195181D02*
X0173500Y0190819D01*
X0183500Y0190819D02*
X0183500Y0195181D01*
X0193500Y0195181D02*
X0193500Y0190819D01*
X0203500Y0190819D02*
X0203500Y0195181D01*
X0213500Y0195181D02*
X0213500Y0190819D01*
X0223500Y0190819D02*
X0223500Y0195181D01*
X0233500Y0195181D02*
X0233500Y0190819D01*
X0243500Y0190819D02*
X0243500Y0195181D01*
X0253500Y0195181D02*
X0253500Y0190819D01*
X0263500Y0190819D02*
X0263500Y0195181D01*
X0273500Y0195181D02*
X0273500Y0190819D01*
X0273500Y0250819D02*
X0273500Y0255181D01*
X0263500Y0255181D02*
X0263500Y0250819D01*
X0253500Y0250819D02*
X0253500Y0255181D01*
X0243500Y0255181D02*
X0243500Y0250819D01*
X0233500Y0250819D02*
X0233500Y0255181D01*
X0223500Y0255181D02*
X0223500Y0250819D01*
X0213500Y0250819D02*
X0213500Y0255181D01*
X0203500Y0255181D02*
X0203500Y0250819D01*
X0193500Y0250819D02*
X0193500Y0255181D01*
X0183500Y0255181D02*
X0183500Y0250819D01*
X0173500Y0250819D02*
X0173500Y0255181D01*
X0163500Y0255181D02*
X0163500Y0250819D01*
X0153500Y0250819D02*
X0153500Y0255181D01*
X0143500Y0255181D02*
X0143500Y0250819D01*
X0133500Y0250819D02*
X0133500Y0255181D01*
X0123500Y0255181D02*
X0123500Y0250819D01*
X0113500Y0250819D02*
X0113500Y0255181D01*
X0103500Y0255181D02*
X0103500Y0250819D01*
X0093500Y0250819D02*
X0093500Y0255181D01*
X0083500Y0255181D02*
X0083500Y0250819D01*
X0073500Y0250819D02*
X0073500Y0255181D01*
X0063500Y0255181D02*
X0063500Y0250819D01*
X0053500Y0250819D02*
X0053500Y0255181D01*
X0043500Y0255181D02*
X0043500Y0250819D01*
X0079056Y0270653D02*
X0079049Y0275015D01*
X0089049Y0275033D02*
X0089056Y0270671D01*
X0099056Y0270688D02*
X0099049Y0275050D01*
X0109049Y0275068D02*
X0109056Y0270705D01*
X0119056Y0270723D02*
X0119049Y0275085D01*
X0129049Y0275103D02*
X0129056Y0270740D01*
X0139056Y0270758D02*
X0139049Y0275120D01*
X0149049Y0275138D02*
X0149056Y0270775D01*
X0159056Y0270793D02*
X0159049Y0275155D01*
X0169049Y0275172D02*
X0169056Y0270810D01*
X0179056Y0270828D02*
X0179049Y0275190D01*
X0189049Y0275207D02*
X0189056Y0270845D01*
X0199056Y0270863D02*
X0199049Y0275225D01*
X0209048Y0275242D02*
X0209056Y0270880D01*
X0219056Y0270897D02*
X0219048Y0275260D01*
X0229048Y0275277D02*
X0229056Y0270915D01*
X0239056Y0270932D02*
X0239048Y0275295D01*
X0249048Y0275312D02*
X0249056Y0270950D01*
X0259056Y0270967D02*
X0259048Y0275329D01*
X0269048Y0275347D02*
X0269056Y0270985D01*
X0268951Y0330985D02*
X0268944Y0335347D01*
X0258944Y0335329D02*
X0258951Y0330967D01*
X0248951Y0330950D02*
X0248944Y0335312D01*
X0238944Y0335294D02*
X0238951Y0330932D01*
X0228951Y0330915D02*
X0228944Y0335277D01*
X0218944Y0335260D02*
X0218951Y0330897D01*
X0208951Y0330880D02*
X0208944Y0335242D01*
X0198944Y0335225D02*
X0198951Y0330862D01*
X0188951Y0330845D02*
X0188944Y0335207D01*
X0178944Y0335190D02*
X0178951Y0330828D01*
X0168951Y0330810D02*
X0168944Y0335172D01*
X0158944Y0335155D02*
X0158951Y0330793D01*
X0148951Y0330775D02*
X0148944Y0335137D01*
X0138944Y0335120D02*
X0138951Y0330758D01*
X0128952Y0330740D02*
X0128944Y0335102D01*
X0118944Y0335085D02*
X0118952Y0330723D01*
X0108952Y0330705D02*
X0108944Y0335068D01*
X0098944Y0335050D02*
X0098952Y0330688D01*
X0088952Y0330671D02*
X0088944Y0335033D01*
X0078944Y0335015D02*
X0078952Y0330653D01*
D11*
X0108500Y0168000D03*
X0108500Y0158000D03*
X0108500Y0148000D03*
X0108500Y0138000D03*
X0108500Y0128000D03*
X0108500Y0118000D03*
X0108500Y0108000D03*
D12*
X0088500Y0038000D03*
X0098500Y0038000D03*
X0108500Y0038000D03*
X0118500Y0038000D03*
X0128500Y0038000D03*
X0138500Y0038000D03*
X0148500Y0038000D03*
X0158500Y0038000D03*
X0168500Y0038000D03*
X0178500Y0038000D03*
X0188500Y0038000D03*
X0198500Y0038000D03*
D13*
X0219750Y0161750D03*
X0219750Y0176750D03*
X0067250Y0176750D03*
X0067250Y0161750D03*
D14*
X0088500Y0158000D03*
X0088500Y0138000D03*
X0028500Y0213000D03*
X0028500Y0233000D03*
X0023500Y0253000D03*
X0023500Y0263000D03*
X0033500Y0268000D03*
X0038500Y0283000D03*
X0063500Y0268000D03*
X0068500Y0283000D03*
X0063500Y0303000D03*
X0063500Y0323000D03*
D15*
X0031469Y0323000D02*
X0025531Y0323000D01*
X0025531Y0313000D02*
X0031469Y0313000D01*
X0031469Y0303000D02*
X0025531Y0303000D01*
X0025531Y0293000D02*
X0031469Y0293000D01*
X0031469Y0333000D02*
X0025531Y0333000D01*
D16*
X0095375Y0285500D03*
X0133125Y0239625D03*
X0146000Y0238625D03*
X0154125Y0227375D03*
X0159125Y0220500D03*
X0164125Y0208625D03*
X0177250Y0226750D03*
X0174750Y0231750D03*
X0167875Y0242375D03*
X0161000Y0236750D03*
X0146000Y0224250D03*
X0146000Y0218000D03*
X0141000Y0210500D03*
X0104125Y0174250D03*
X0096000Y0142625D03*
X0118500Y0084250D03*
X0116000Y0075500D03*
X0138750Y0071000D03*
X0152875Y0072375D03*
X0156625Y0068000D03*
X0173500Y0066750D03*
X0181625Y0069875D03*
X0177875Y0078000D03*
X0191625Y0075500D03*
X0192250Y0080500D03*
X0184125Y0095500D03*
X0170375Y0101750D03*
X0190375Y0112375D03*
X0152875Y0133000D03*
X0146000Y0090500D03*
X0088500Y0069875D03*
X0098500Y0207375D03*
X0184750Y0288000D03*
X0205375Y0282375D03*
X0205375Y0239250D03*
X0214125Y0226750D03*
X0199125Y0218625D03*
X0244125Y0220500D03*
X0249125Y0213625D03*
X0199125Y0161125D03*
D17*
X0208500Y0343000D03*
X0258500Y0343000D03*
M02*
